ply
format ascii 1.0
comment VCGLIB generated
element vertex 442
property float x
property float y
property float z
property float nx
property float ny
property float nz
property uchar red
property uchar green
property uchar blue
property uchar alpha
property float texture_u
property float texture_v
element face 446
property list uchar int vertex_indices
end_header
2.05 0.1250002 5.375 0.9988991 0.04569981 0.01059039 204 204 204 255 0.5 0.5
2 0.7250002 4.775 0.9891703 0.1467631 -0.00167266 204 204 204 255 0.5 0.5
2 0.5749998 -5.125 0.9917357 0.1282938 -0.001020968 204 204 204 255 0.5 0.5
2.075 -2.316704e-07 -5.3 0.999836 -0.01003524 -0.01507848 204 204 204 255 0.5 0.5
1.75 2.05 3.45 0.9828683 0.1843057 -0.001141212 204 204 204 255 0.5 0.5
1.75 2 -4.625 0.9838467 0.1790028 -0.001886505 204 204 204 255 0.5 0.5
1.75 2.05 3.45 0.4926075 0.8585102 0.1424721 204 204 204 255 0.5 0.5
1.5 2.225 3.175 0.1557462 0.9633548 0.2183818 204 204 204 255 0.5 0.5
1.5 2.225 -4.325 0.2356883 0.9504969 -0.2025013 204 204 204 255 0.5 0.5
1.75 2 -4.625 0.3974989 0.8618031 -0.3151033 204 204 204 255 0.5 0.5
2 -1.225 -5.225 0.1259901 -0.06428416 -0.9899465 204 204 204 255 0.5 0.5
2.075 -2.316704e-07 -5.3 0.1222332 0.1777107 -0.976462 204 204 204 255 0.5 0.5
1.25 -2.360415e-07 -5.4 0.0623076 0.1157138 -0.9913265 204 204 204 255 0.5 0.5
1.25 -1.225 -5.325 0.04405933 -0.06105074 -0.9971618 204 204 204 255 0.5 0.5
2 0.5749998 -5.125 0.1143046 0.3352513 -0.935169 204 204 204 255 0.5 0.5
1.25 0.5749998 -5.225 0.06090583 0.32775 -0.9427993 204 204 204 255 0.5 0.5
1.75 2 -4.625 0.09342392 0.3441933 -0.9342392 204 204 204 255 0.5 0.5
1.25 2 -4.675 0.07238977 0.3543644 -0.9323013 204 204 204 255 0.5 0.5
1.25 2.1 3.55 0.08645616 0.9264153 0.3664425 204 204 204 255 0.5 0.5
2 -1.15 5.375 0.008918552 -0.9955757 0.09353931 204 204 204 255 0.5 0.5
2 -1.3 3.85 0 -0.9951974 0.09788827 204 204 204 255 0.5 0.5
1.25 -1.3 3.85 0.003570997 -0.9984628 0.05531106 204 204 204 255 0.5 0.5
1.25 -1.15 5.525 0.005945618 -0.9959966 0.08919372 204 204 204 255 0.5 0.5
2.075 -0.6999999 3.55 0.4845673 -0.7614505 -0.4305669 204 204 204 255 0.5 0.5
2.1 -0.4999999 2.975 0.6854226 -0.7281342 0.004071243 204 204 204 255 0.5 0.5
1.25 -1.3 3 0.6365198 -0.7712182 0.00806801 204 204 204 255 0.5 0.5
2.075 -0.7249999 2.35 0.4970916 -0.7260353 0.4751555 204 204 204 255 0.5 0.5
2 -1.325 2.15 0 -0.3162277 0.9486833 204 204 204 255 0.5 0.5
1.25 -1.325 2.15 0.3652518 -0.7048998 0.6080357 204 204 204 255 0.5 0.5
2 -1.325 2.15 0 -1 0 204 204 204 255 0.5 0.5
2 -1.325 -2.05 0 -1 0 204 204 204 255 0.5 0.5
1.25 -1.325 -2.05 0 -0.9997394 -0.02282884 204 204 204 255 0.5 0.5
1.25 -1.325 2.15 0 -0.999973 0.007350359 204 204 204 255 0.5 0.5
2.075 -0.7500001 -2.325 0.464099 -0.7499582 -0.4713543 204 204 204 255 0.5 0.5
2.1 -0.4750001 -2.95 0.6854166 -0.7281422 0.003617808 204 204 204 255 0.5 0.5
1.25 -1.275 -2.925 0.6145196 -0.7887097 -0.01739669 204 204 204 255 0.5 0.5
2.075 -0.7500001 -3.55 0.4730571 -0.7333391 0.4882938 204 204 204 255 0.5 0.5
2 -1.25 -3.7 0 -0.287348 0.9578263 204 204 204 255 0.5 0.5
1.25 -1.25 -3.7 0.3342048 -0.7302092 0.5959041 204 204 204 255 0.5 0.5
2 -1.25 -3.7 0.001092748 -0.9998732 -0.01588701 204 204 204 255 0.5 0.5
2 -1.225 -5.225 0.002185493 -0.9998633 -0.0163912 204 204 204 255 0.5 0.5
1.25 -1.225 -5.325 0.0007284983 -0.9998762 -0.01571894 204 204 204 255 0.5 0.5
1.25 -1.25 -3.7 0 -0.999808 -0.01959794 204 204 204 255 0.5 0.5
-1.25 -2.360415e-07 -5.4 -0.06219151 0.05582899 -0.9965016 204 204 204 255 0.5 0.5
-1.25 -1.225 -5.325 -0.0661051 -0.06097641 -0.9959478 204 204 204 255 0.5 0.5
-1.25 0.5749998 -5.225 -0.06090329 0.3162231 -0.946728 204 204 204 255 0.5 0.5
-1.25 2 -4.675 -0.0543 0.3559698 -0.9329185 204 204 204 255 0.5 0.5
1.25 2 -4.675 0.01895227 0.8348151 -0.5502042 204 204 204 255 0.5 0.5
-1.5 2.225 -4.325 -0.1573301 0.9205159 -0.3576279 204 204 204 255 0.5 0.5
-1.25 2 -4.675 -0.02843015 0.8314784 -0.5548291 204 204 204 255 0.5 0.5
-1.5 2.225 3.175 -0.2517694 0.9592142 0.1285314 204 204 204 255 0.5 0.5
-1.25 2.1 3.55 -0.05760362 0.9349565 0.3500546 204 204 204 255 0.5 0.5
1.25 2.1 3.55 0.1024758 0.7220556 0.6842036 204 204 204 255 0.5 0.5
1.25 0.7250002 5 0.08880526 0.6808652 0.7270049 204 204 204 255 0.5 0.5
-1.25 0.7250002 5 -0.08879373 0.6945936 0.7139016 204 204 204 255 0.5 0.5
-1.25 2.1 3.55 -0.136554 0.7191621 0.6812921 204 204 204 255 0.5 0.5
1.25 0.1000002 5.525 0.08893765 0.2252442 0.9702346 204 204 204 255 0.5 0.5
-1.25 0.1000002 5.525 -0.0895898 0.3414195 0.9356316 204 204 204 255 0.5 0.5
1.25 -1.15 5.525 0.09853762 0 0.9951333 204 204 204 255 0.5 0.5
-1.25 -1.15 5.525 -0.065656 0 0.9978424 204 204 204 255 0.5 0.5
-1.25 -1.3 3.85 0 -0.9977566 0.06694652 204 204 204 255 0.5 0.5
-1.25 -1.15 5.525 -0.006524967 -0.9957292 0.09209141 204 204 204 255 0.5 0.5
1.25 -1.3 3 0 -0.9998079 0.01960125 204 204 204 255 0.5 0.5
-1.25 -1.3 3 0 -0.999952 0.009800626 204 204 204 255 0.5 0.5
-1.25 -1.325 2.15 0 -0.9999309 0.01176084 204 204 204 255 0.5 0.5
-1.25 -1.325 -2.05 0 -0.9998983 -0.01426681 204 204 204 255 0.5 0.5
1.25 -1.275 -2.925 0 -0.999179 -0.04051357 204 204 204 255 0.5 0.5
-1.25 -1.275 -2.925 0 -0.9988094 -0.04878363 204 204 204 255 0.5 0.5
-1.25 -1.25 -3.7 -0.0004102206 -0.9997506 -0.02232862 204 204 204 255 0.5 0.5
-1.25 -1.225 -5.325 -0.0006836787 -0.9998815 -0.01538279 204 204 204 255 0.5 0.5
-1.75 2 -4.625 -0.4697283 0.8582733 -0.2066938 204 204 204 255 0.5 0.5
-2 0.7250002 4.775 -0.2042688 0.7074644 0.6765859 204 204 204 255 0.5 0.5
-1.75 2.05 3.45 -0.20558 0.7111258 0.6723371 204 204 204 255 0.5 0.5
-2.05 0.1250002 5.375 -0.1819372 0.4731276 0.862003 204 204 204 255 0.5 0.5
-2 -1.15 5.375 -0.1903137 -0.003617775 0.9817167 204 204 204 255 0.5 0.5
-2 -1.3 3.85 -0.009787514 -0.9955677 0.09353778 204 204 204 255 0.5 0.5
-2 -1.15 5.375 -0.0195739 -0.9950067 0.09786952 204 204 204 255 0.5 0.5
-1.25 -1.3 3.85 -0.3564117 -0.7610621 -0.541992 204 204 204 255 0.5 0.5
-1.25 -1.3 3 -0.6365198 -0.7712182 0.00806801 204 204 204 255 0.5 0.5
-2.075 -0.6999999 3.55 -0.8703386 -0.443849 -0.2133285 204 204 204 255 0.5 0.5
-2 -1.3 3.85 -0.6876346 -0.3916405 -0.6113725 204 204 204 255 0.5 0.5
-2.1 -0.4999999 2.975 -0.9456336 -0.3251261 0.008372264 204 204 204 255 0.5 0.5
-2.075 -0.7249999 2.35 -0.8641356 -0.4397014 0.244811 204 204 204 255 0.5 0.5
-2 -1.325 -2.05 0 -1 0 204 204 204 255 0.5 0.5
-2 -1.325 2.15 0 -1 0 204 204 204 255 0.5 0.5
-1.25 -1.325 -2.05 -0.3350445 -0.7521268 -0.5674949 204 204 204 255 0.5 0.5
-1.25 -1.275 -2.925 -0.6145196 -0.7887097 -0.01739669 204 204 204 255 0.5 0.5
-2.075 -0.7500001 -2.325 -0.848775 -0.4663362 -0.2492222 204 204 204 255 0.5 0.5
-2 -1.325 -2.05 -0.6823859 -0.38592 -0.6208183 204 204 204 255 0.5 0.5
-2.1 -0.4750001 -2.95 -0.9727222 -0.2319667 -0.001729876 204 204 204 255 0.5 0.5
-2.075 -0.7500001 -3.55 -0.8077988 -0.512387 0.2914115 204 204 204 255 0.5 0.5
-2 -1.225 -5.225 -0.001025518 -0.9998733 -0.01588701 204 204 204 255 0.5 0.5
-2 -1.25 -3.7 0 -0.9998657 -0.01639124 204 204 204 255 0.5 0.5
-2.075 -2.316704e-07 -5.3 -0.9999006 0.005904048 -0.01280401 204 204 204 255 0.5 0.5
-2 0.5749998 -5.125 -0.9867913 0.1619856 -0.001937033 204 204 204 255 0.5 0.5
-2 0.7250002 4.775 -0.9911882 0.1324567 -0.001131537 204 204 204 255 0.5 0.5
-2.05 0.1250002 5.375 -0.9994804 0.02946894 0.01305867 204 204 204 255 0.5 0.5
-1.75 2 -4.625 -0.9848924 0.1731643 -0.001072225 204 204 204 255 0.5 0.5
-1.75 2.05 3.45 -0.9840375 0.1779508 -0.00192048 204 204 204 255 0.5 0.5
-1.75 2.05 3.45 -0.3918656 0.8949601 0.2132786 204 204 204 255 0.5 0.5
-2 0.5749998 -5.125 -0.1143046 0.3352513 -0.935169 204 204 204 255 0.5 0.5
-1.75 2 -4.625 -0.09342392 0.3441933 -0.9342392 204 204 204 255 0.5 0.5
-2.075 -2.316704e-07 -5.3 -0.1222332 0.1777107 -0.976462 204 204 204 255 0.5 0.5
-2 -1.225 -5.225 -0.1259901 -0.06428416 -0.9899465 204 204 204 255 0.5 0.5
2 0.7250002 4.775 0.2042688 0.7074644 0.6765859 204 204 204 255 0.5 0.5
1.75 2.05 3.45 0.20558 0.7111258 0.6723371 204 204 204 255 0.5 0.5
2.05 0.1250002 5.375 0.1819372 0.4731276 0.862003 204 204 204 255 0.5 0.5
2 -1.15 5.375 0.1903137 -0.003617775 0.9817167 204 204 204 255 0.5 0.5
1.25 -1.3 3.85 0.3564117 -0.7610621 -0.541992 204 204 204 255 0.5 0.5
2 -1.3 3.85 0 -0.4472136 -0.8944272 204 204 204 255 0.5 0.5
-1.25 -1.325 2.15 -0.3652518 -0.7048998 0.6080357 204 204 204 255 0.5 0.5
-2 -1.325 2.15 -0.8732046 -0.2508098 0.4178615 204 204 204 255 0.5 0.5
-1.25 -1.25 -3.7 -0.3342048 -0.7302092 0.5959041 204 204 204 255 0.5 0.5
-2 -1.25 -3.7 -0.8896315 -0.2148463 0.4029849 204 204 204 255 0.5 0.5
1.25 -1.325 -2.05 0.3350446 -0.7521268 -0.5674948 204 204 204 255 0.5 0.5
2 -1.325 -2.05 0 -0.4314556 -0.9021342 204 204 204 255 0.5 0.5
2 -1.15 5.375 0.9966582 -0.07879697 0.02152916 204 204 204 255 0.5 0.5
2.075 -0.6999999 3.55 0.9975883 -0.06493235 0.02452384 204 204 204 255 0.5 0.5
2 -1.3 3.85 0.9929103 -0.1182959 0.01163567 204 204 204 255 0.5 0.5
2 -1.225 -5.225 0.9981268 -0.06117121 -0.001002807 204 204 204 255 0.5 0.5
2 -1.25 -3.7 0.994923 -0.09645481 -0.02871829 204 204 204 255 0.5 0.5
2.075 -0.7500001 -3.55 0.9952664 -0.08932655 -0.03828279 204 204 204 255 0.5 0.5
2.1 -0.4750001 -2.95 0.9997653 -0.02135867 -0.00363713 204 204 204 255 0.5 0.5
2.075 -0.7500001 -2.325 0.9934384 -0.114368 0.0003810085 204 204 204 255 0.5 0.5
2.075 -0.7249999 2.35 0.9941903 -0.1076369 0.0002274316 204 204 204 255 0.5 0.5
2.1 -0.4999999 2.975 0.9996909 -0.0226946 0.01015274 204 204 204 255 0.5 0.5
2 -1.325 -2.05 0.9916004 -0.1293392 0 204 204 204 255 0.5 0.5
2 -1.325 2.15 0.9919288 -0.1267964 0.0003322303 204 204 204 255 0.5 0.5
-2 -1.225 -5.225 -0.9981268 -0.06117121 -0.001002807 204 204 204 255 0.5 0.5
-2 -1.15 5.375 -0.9966582 -0.07879697 0.02152916 204 204 204 255 0.5 0.5
1.5 -1.175 3.7 0 0.1258126 0.992054 204 204 204 255 0.5 0.5
2 -1.175 3.7 0 0.2516253 0.9678248 204 204 204 255 0.5 0.5
2 -1.475 3.7 0 -0.1258127 0.992054 204 204 204 255 0.5 0.5
1.5 -1.475 3.7 0 -0.2516255 0.9678247 204 204 204 255 0.5 0.5
1.5 -0.9249998 3.6 0 0.492221 0.8704703 204 204 204 255 0.5 0.5
2 -0.9249998 3.6 0 0.6061931 0.7953175 204 204 204 255 0.5 0.5
1.5 -0.6999999 3.375 0 0.7953176 0.6061929 204 204 204 255 0.5 0.5
2 -0.6999999 3.375 0 0.8704703 0.4922211 204 204 204 255 0.5 0.5
1.5 -0.5999999 3.125 0 0.9678247 0.2516255 204 204 204 255 0.5 0.5
2 -0.5999999 3.125 0 0.992054 0.1258127 204 204 204 255 0.5 0.5
1.5 -0.5999999 2.825 0 0.992054 -0.1258127 204 204 204 255 0.5 0.5
2 -0.5999999 2.825 0 0.9678247 -0.2516255 204 204 204 255 0.5 0.5
1.5 -0.6999999 2.575 0 0.8704702 -0.4922211 204 204 204 255 0.5 0.5
2 -0.6999999 2.575 0 0.7953176 -0.6061929 204 204 204 255 0.5 0.5
1.5 -0.9249999 2.35 0 0.6061929 -0.7953176 204 204 204 255 0.5 0.5
2 -0.9249999 2.35 0 0.492221 -0.8704703 204 204 204 255 0.5 0.5
1.5 -1.175 2.25 0 0.2516253 -0.9678247 204 204 204 255 0.5 0.5
2 -1.175 2.25 0 0.1258127 -0.992054 204 204 204 255 0.5 0.5
1.5 -1.475 2.25 0 -0.1258127 -0.992054 204 204 204 255 0.5 0.5
2 -1.475 2.25 0 -0.2516255 -0.9678247 204 204 204 255 0.5 0.5
1.5 -1.725 2.35 0 -0.4922211 -0.8704702 204 204 204 255 0.5 0.5
2 -1.725 2.35 0 -0.6061929 -0.7953176 204 204 204 255 0.5 0.5
1.5 -1.95 2.575 0 -0.7953176 -0.6061929 204 204 204 255 0.5 0.5
2 -1.95 2.575 0 -0.8704702 -0.4922211 204 204 204 255 0.5 0.5
1.5 -2.05 2.825 0 -0.9678247 -0.2516255 204 204 204 255 0.5 0.5
2 -2.05 2.825 0 -0.992054 -0.1258127 204 204 204 255 0.5 0.5
1.5 -2.05 3.125 0 -0.992054 0.1258127 204 204 204 255 0.5 0.5
2 -2.05 3.125 0 -0.9678247 0.2516255 204 204 204 255 0.5 0.5
1.5 -1.95 3.375 0 -0.8704702 0.4922211 204 204 204 255 0.5 0.5
2 -1.95 3.375 0 -0.7953176 0.6061929 204 204 204 255 0.5 0.5
1.5 -1.725 3.6 0 -0.6061929 0.7953176 204 204 204 255 0.5 0.5
2 -1.725 3.6 0 -0.4922211 0.8704702 204 204 204 255 0.5 0.5
2 -1.325 2.975 1 0 0 204 204 204 255 0.5 0.5
2 -1.475 3.7 1 0 0 204 204 204 255 0.5 0.5
2 -1.175 3.7 1 0 0 204 204 204 255 0.5 0.5
2 -0.9249998 3.6 1 0 0 204 204 204 255 0.5 0.5
2 -0.6999999 3.375 1 0 0 204 204 204 255 0.5 0.5
2 -0.5999999 3.125 1 0 0 204 204 204 255 0.5 0.5
2 -0.5999999 2.825 1 0 0 204 204 204 255 0.5 0.5
2 -0.6999999 2.575 1 0 0 204 204 204 255 0.5 0.5
2 -0.9249999 2.35 1 0 0 204 204 204 255 0.5 0.5
2 -1.175 2.25 1 0 0 204 204 204 255 0.5 0.5
2 -1.475 2.25 1 0 0 204 204 204 255 0.5 0.5
2 -1.725 2.35 1 0 0 204 204 204 255 0.5 0.5
2 -1.95 2.575 1 0 0 204 204 204 255 0.5 0.5
2 -2.05 2.825 1 0 0 204 204 204 255 0.5 0.5
2 -2.05 3.125 1 0 0 204 204 204 255 0.5 0.5
2 -1.95 3.375 1 0 0 204 204 204 255 0.5 0.5
2 -1.725 3.6 1 0 0 204 204 204 255 0.5 0.5
1.5 -1.325 2.975 -1 0 0 204 204 204 255 0.5 0.5
1.5 -1.175 3.7 -1 0 0 204 204 204 255 0.5 0.5
1.5 -1.475 3.7 -1 0 0 204 204 204 255 0.5 0.5
1.5 -1.725 3.6 -1 0 0 204 204 204 255 0.5 0.5
1.5 -1.95 3.375 -1 0 0 204 204 204 255 0.5 0.5
1.5 -2.05 3.125 -1 0 0 204 204 204 255 0.5 0.5
1.5 -2.05 2.825 -1 0 0 204 204 204 255 0.5 0.5
1.5 -1.95 2.575 -1 0 0 204 204 204 255 0.5 0.5
1.5 -1.725 2.35 -1 0 0 204 204 204 255 0.5 0.5
1.5 -1.475 2.25 -1 0 0 204 204 204 255 0.5 0.5
1.5 -1.175 2.25 -1 0 0 204 204 204 255 0.5 0.5
1.5 -0.9249999 2.35 -1 0 0 204 204 204 255 0.5 0.5
1.5 -0.6999999 2.575 -1 0 0 204 204 204 255 0.5 0.5
1.5 -0.5999999 2.825 -1 0 0 204 204 204 255 0.5 0.5
1.5 -0.5999999 3.125 -1 0 0 204 204 204 255 0.5 0.5
1.5 -0.6999999 3.375 -1 0 0 204 204 204 255 0.5 0.5
1.5 -0.9249998 3.6 -1 0 0 204 204 204 255 0.5 0.5
-1.5 -1.175 2.25 0 0.1258127 -0.992054 204 204 204 255 0.5 0.5
-2 -1.175 2.25 0 0.2516253 -0.9678247 204 204 204 255 0.5 0.5
-2 -1.475 2.25 0 -0.1258127 -0.992054 204 204 204 255 0.5 0.5
-1.5 -1.475 2.25 0 -0.2516255 -0.9678247 204 204 204 255 0.5 0.5
-1.5 -0.9249999 2.35 0 0.492221 -0.8704703 204 204 204 255 0.5 0.5
-2 -0.9249999 2.35 0 0.6061929 -0.7953176 204 204 204 255 0.5 0.5
-1.5 -0.6999999 2.575 0 0.7953176 -0.6061929 204 204 204 255 0.5 0.5
-2 -0.6999999 2.575 0 0.8704702 -0.4922211 204 204 204 255 0.5 0.5
-1.5 -0.5999999 2.825 0 0.9678247 -0.2516255 204 204 204 255 0.5 0.5
-2 -0.5999999 2.825 0 0.992054 -0.1258127 204 204 204 255 0.5 0.5
-1.5 -0.5999999 3.125 0 0.992054 0.1258127 204 204 204 255 0.5 0.5
-2 -0.5999999 3.125 0 0.9678247 0.2516255 204 204 204 255 0.5 0.5
-1.5 -0.6999999 3.375 0 0.8704703 0.492221 204 204 204 255 0.5 0.5
-2 -0.6999999 3.375 0 0.7953176 0.6061929 204 204 204 255 0.5 0.5
-1.5 -0.9249998 3.6 0 0.6061931 0.7953175 204 204 204 255 0.5 0.5
-2 -0.9249998 3.6 0 0.492221 0.8704703 204 204 204 255 0.5 0.5
-1.5 -1.175 3.7 0 0.2516253 0.9678248 204 204 204 255 0.5 0.5
-2 -1.175 3.7 0 0.1258126 0.992054 204 204 204 255 0.5 0.5
-1.5 -1.475 3.7 0 -0.1258127 0.992054 204 204 204 255 0.5 0.5
-2 -1.475 3.7 0 -0.2516255 0.9678247 204 204 204 255 0.5 0.5
-1.5 -1.725 3.6 0 -0.4922211 0.8704702 204 204 204 255 0.5 0.5
-2 -1.725 3.6 0 -0.6061929 0.7953176 204 204 204 255 0.5 0.5
-1.5 -1.95 3.375 0 -0.7953176 0.6061929 204 204 204 255 0.5 0.5
-2 -1.95 3.375 0 -0.8704702 0.4922211 204 204 204 255 0.5 0.5
-1.5 -2.05 3.125 0 -0.9678247 0.2516255 204 204 204 255 0.5 0.5
-2 -2.05 3.125 0 -0.992054 0.1258127 204 204 204 255 0.5 0.5
-1.5 -2.05 2.825 0 -0.992054 -0.1258127 204 204 204 255 0.5 0.5
-2 -2.05 2.825 0 -0.9678247 -0.2516255 204 204 204 255 0.5 0.5
-1.5 -1.95 2.575 0 -0.8704702 -0.4922211 204 204 204 255 0.5 0.5
-2 -1.95 2.575 0 -0.7953176 -0.6061929 204 204 204 255 0.5 0.5
-1.5 -1.725 2.35 0 -0.6061929 -0.7953176 204 204 204 255 0.5 0.5
-2 -1.725 2.35 0 -0.4922211 -0.8704702 204 204 204 255 0.5 0.5
-2 -1.325 2.975 -1 0 0 204 204 204 255 0.5 0.5
-2 -1.475 2.25 -1 0 0 204 204 204 255 0.5 0.5
-2 -1.175 2.25 -1 0 0 204 204 204 255 0.5 0.5
-2 -0.9249999 2.35 -1 0 0 204 204 204 255 0.5 0.5
-2 -0.6999999 2.575 -1 0 0 204 204 204 255 0.5 0.5
-2 -0.5999999 2.825 -1 0 0 204 204 204 255 0.5 0.5
-2 -0.5999999 3.125 -1 0 0 204 204 204 255 0.5 0.5
-2 -0.6999999 3.375 -1 0 0 204 204 204 255 0.5 0.5
-2 -0.9249998 3.6 -1 0 0 204 204 204 255 0.5 0.5
-2 -1.175 3.7 -1 0 0 204 204 204 255 0.5 0.5
-2 -1.475 3.7 -1 0 0 204 204 204 255 0.5 0.5
-2 -1.725 3.6 -1 0 0 204 204 204 255 0.5 0.5
-2 -1.95 3.375 -1 0 0 204 204 204 255 0.5 0.5
-2 -2.05 3.125 -1 0 0 204 204 204 255 0.5 0.5
-2 -2.05 2.825 -1 0 0 204 204 204 255 0.5 0.5
-2 -1.95 2.575 -1 0 0 204 204 204 255 0.5 0.5
-2 -1.725 2.35 -1 0 0 204 204 204 255 0.5 0.5
-1.5 -1.325 2.975 1 0 0 204 204 204 255 0.5 0.5
-1.5 -1.175 2.25 1 0 0 204 204 204 255 0.5 0.5
-1.5 -1.475 2.25 1 0 0 204 204 204 255 0.5 0.5
-1.5 -1.725 2.35 1 0 0 204 204 204 255 0.5 0.5
-1.5 -1.95 2.575 1 0 0 204 204 204 255 0.5 0.5
-1.5 -2.05 2.825 1 0 0 204 204 204 255 0.5 0.5
-1.5 -2.05 3.125 1 0 0 204 204 204 255 0.5 0.5
-1.5 -1.95 3.375 1 0 0 204 204 204 255 0.5 0.5
-1.5 -1.725 3.6 1 0 0 204 204 204 255 0.5 0.5
-1.5 -1.475 3.7 1 0 0 204 204 204 255 0.5 0.5
-1.5 -1.175 3.7 1 0 0 204 204 204 255 0.5 0.5
-1.5 -0.9249998 3.6 1 0 0 204 204 204 255 0.5 0.5
-1.5 -0.6999999 3.375 1 0 0 204 204 204 255 0.5 0.5
-1.5 -0.5999999 3.125 1 0 0 204 204 204 255 0.5 0.5
-1.5 -0.5999999 2.825 1 0 0 204 204 204 255 0.5 0.5
-1.5 -0.6999999 2.575 1 0 0 204 204 204 255 0.5 0.5
-1.5 -0.9249999 2.35 1 0 0 204 204 204 255 0.5 0.5
1.5 -1.175 -2.175 0 0.1258128 0.992054 204 204 204 255 0.5 0.5
2 -1.175 -2.175 0 0.2516255 0.9678247 204 204 204 255 0.5 0.5
2 -1.475 -2.175 0 -0.1258127 0.992054 204 204 204 255 0.5 0.5
1.5 -1.475 -2.175 0 -0.2516255 0.9678247 204 204 204 255 0.5 0.5
1.5 -0.9250001 -2.275 0 0.4922211 0.8704702 204 204 204 255 0.5 0.5
2 -0.9250001 -2.275 0 0.606193 0.7953176 204 204 204 255 0.5 0.5
1.5 -0.7000001 -2.5 0 0.7953176 0.6061929 204 204 204 255 0.5 0.5
2 -0.7000001 -2.5 0 0.8704702 0.4922211 204 204 204 255 0.5 0.5
1.5 -0.6000001 -2.75 0 0.9678247 0.2516255 204 204 204 255 0.5 0.5
2 -0.6000001 -2.75 0 0.992054 0.1258127 204 204 204 255 0.5 0.5
1.5 -0.6000001 -3.05 0 0.992054 -0.1258127 204 204 204 255 0.5 0.5
2 -0.6000001 -3.05 0 0.9678247 -0.2516255 204 204 204 255 0.5 0.5
1.5 -0.7000001 -3.3 0 0.8704702 -0.4922212 204 204 204 255 0.5 0.5
2 -0.7000001 -3.3 0 0.7953175 -0.6061931 204 204 204 255 0.5 0.5
1.5 -0.9250002 -3.525 0 0.6061929 -0.7953176 204 204 204 255 0.5 0.5
2 -0.9250002 -3.525 0 0.4922212 -0.8704702 204 204 204 255 0.5 0.5
1.5 -1.175 -3.625 0 0.2516256 -0.9678247 204 204 204 255 0.5 0.5
2 -1.175 -3.625 0 0.1258128 -0.992054 204 204 204 255 0.5 0.5
1.5 -1.475 -3.625 0 -0.1258127 -0.992054 204 204 204 255 0.5 0.5
2 -1.475 -3.625 0 -0.2516255 -0.9678247 204 204 204 255 0.5 0.5
1.5 -1.725 -3.525 0 -0.4922211 -0.8704702 204 204 204 255 0.5 0.5
2 -1.725 -3.525 0 -0.6061929 -0.7953176 204 204 204 255 0.5 0.5
1.5 -1.95 -3.3 0 -0.7953176 -0.6061929 204 204 204 255 0.5 0.5
2 -1.95 -3.3 0 -0.8704702 -0.4922211 204 204 204 255 0.5 0.5
1.5 -2.05 -3.05 0 -0.9678247 -0.2516255 204 204 204 255 0.5 0.5
2 -2.05 -3.05 0 -0.992054 -0.1258127 204 204 204 255 0.5 0.5
1.5 -2.05 -2.75 0 -0.992054 0.1258127 204 204 204 255 0.5 0.5
2 -2.05 -2.75 0 -0.9678247 0.2516255 204 204 204 255 0.5 0.5
1.5 -1.95 -2.5 0 -0.8704702 0.4922211 204 204 204 255 0.5 0.5
2 -1.95 -2.5 0 -0.7953176 0.6061929 204 204 204 255 0.5 0.5
1.5 -1.725 -2.275 0 -0.6061929 0.7953176 204 204 204 255 0.5 0.5
2 -1.725 -2.275 0 -0.4922211 0.8704702 204 204 204 255 0.5 0.5
2 -1.325 -2.9 1 0 0 204 204 204 255 0.5 0.5
2 -1.475 -2.175 1 0 0 204 204 204 255 0.5 0.5
2 -1.175 -2.175 1 0 0 204 204 204 255 0.5 0.5
2 -0.9250001 -2.275 1 0 0 204 204 204 255 0.5 0.5
2 -0.7000001 -2.5 1 0 0 204 204 204 255 0.5 0.5
2 -0.6000001 -2.75 1 0 0 204 204 204 255 0.5 0.5
2 -0.6000001 -3.05 1 0 0 204 204 204 255 0.5 0.5
2 -0.7000001 -3.3 1 0 0 204 204 204 255 0.5 0.5
2 -0.9250002 -3.525 1 0 0 204 204 204 255 0.5 0.5
2 -1.175 -3.625 1 0 0 204 204 204 255 0.5 0.5
2 -1.475 -3.625 1 0 0 204 204 204 255 0.5 0.5
2 -1.725 -3.525 1 0 0 204 204 204 255 0.5 0.5
2 -1.95 -3.3 1 0 0 204 204 204 255 0.5 0.5
2 -2.05 -3.05 1 0 0 204 204 204 255 0.5 0.5
2 -2.05 -2.75 1 0 0 204 204 204 255 0.5 0.5
2 -1.95 -2.5 1 0 0 204 204 204 255 0.5 0.5
2 -1.725 -2.275 1 0 0 204 204 204 255 0.5 0.5
1.5 -1.325 -2.9 -1 0 0 204 204 204 255 0.5 0.5
1.5 -1.175 -2.175 -1 0 0 204 204 204 255 0.5 0.5
1.5 -1.475 -2.175 -1 0 0 204 204 204 255 0.5 0.5
1.5 -1.725 -2.275 -1 0 0 204 204 204 255 0.5 0.5
1.5 -1.95 -2.5 -1 0 0 204 204 204 255 0.5 0.5
1.5 -2.05 -2.75 -1 0 0 204 204 204 255 0.5 0.5
1.5 -2.05 -3.05 -1 0 0 204 204 204 255 0.5 0.5
1.5 -1.95 -3.3 -1 0 0 204 204 204 255 0.5 0.5
1.5 -1.725 -3.525 -1 0 0 204 204 204 255 0.5 0.5
1.5 -1.475 -3.625 -1 0 0 204 204 204 255 0.5 0.5
1.5 -1.175 -3.625 -1 0 0 204 204 204 255 0.5 0.5
1.5 -0.9250002 -3.525 -1 0 0 204 204 204 255 0.5 0.5
1.5 -0.7000001 -3.3 -1 0 0 204 204 204 255 0.5 0.5
1.5 -0.6000001 -3.05 -1 0 0 204 204 204 255 0.5 0.5
1.5 -0.6000001 -2.75 -1 0 0 204 204 204 255 0.5 0.5
1.5 -0.7000001 -2.5 -1 0 0 204 204 204 255 0.5 0.5
1.5 -0.9250001 -2.275 -1 0 0 204 204 204 255 0.5 0.5
-1.5 -1.175 -3.625 0 0.1258128 -0.992054 204 204 204 255 0.5 0.5
-2 -1.175 -3.625 0 0.2516256 -0.9678247 204 204 204 255 0.5 0.5
-2 -1.475 -3.625 0 -0.1258127 -0.992054 204 204 204 255 0.5 0.5
-1.5 -1.475 -3.625 0 -0.2516255 -0.9678247 204 204 204 255 0.5 0.5
-1.5 -0.9250002 -3.525 0 0.4922211 -0.8704702 204 204 204 255 0.5 0.5
-2 -0.9250002 -3.525 0 0.6061929 -0.7953176 204 204 204 255 0.5 0.5
-1.5 -0.7000001 -3.3 0 0.7953175 -0.6061931 204 204 204 255 0.5 0.5
-2 -0.7000001 -3.3 0 0.8704702 -0.4922211 204 204 204 255 0.5 0.5
-1.5 -0.6000001 -3.05 0 0.9678247 -0.2516255 204 204 204 255 0.5 0.5
-2 -0.6000001 -3.05 0 0.992054 -0.1258127 204 204 204 255 0.5 0.5
-1.5 -0.6000001 -2.75 0 0.992054 0.1258127 204 204 204 255 0.5 0.5
-2 -0.6000001 -2.75 0 0.9678247 0.2516255 204 204 204 255 0.5 0.5
-1.5 -0.7000001 -2.5 0 0.8704702 0.4922211 204 204 204 255 0.5 0.5
-2 -0.7000001 -2.5 0 0.7953176 0.6061929 204 204 204 255 0.5 0.5
-1.5 -0.9250001 -2.275 0 0.606193 0.7953176 204 204 204 255 0.5 0.5
-2 -0.9250001 -2.275 0 0.4922211 0.8704702 204 204 204 255 0.5 0.5
-1.5 -1.175 -2.175 0 0.2516255 0.9678247 204 204 204 255 0.5 0.5
-2 -1.175 -2.175 0 0.1258128 0.992054 204 204 204 255 0.5 0.5
-1.5 -1.475 -2.175 0 -0.1258127 0.992054 204 204 204 255 0.5 0.5
-2 -1.475 -2.175 0 -0.2516255 0.9678247 204 204 204 255 0.5 0.5
-1.5 -1.725 -2.275 0 -0.4922211 0.8704702 204 204 204 255 0.5 0.5
-2 -1.725 -2.275 0 -0.6061929 0.7953176 204 204 204 255 0.5 0.5
-1.5 -1.95 -2.5 0 -0.7953176 0.6061929 204 204 204 255 0.5 0.5
-2 -1.95 -2.5 0 -0.8704702 0.4922211 204 204 204 255 0.5 0.5
-1.5 -2.05 -2.75 0 -0.9678247 0.2516255 204 204 204 255 0.5 0.5
-2 -2.05 -2.75 0 -0.992054 0.1258127 204 204 204 255 0.5 0.5
-1.5 -2.05 -3.05 0 -0.992054 -0.1258127 204 204 204 255 0.5 0.5
-2 -2.05 -3.05 0 -0.9678247 -0.2516255 204 204 204 255 0.5 0.5
-1.5 -1.95 -3.3 0 -0.8704702 -0.4922211 204 204 204 255 0.5 0.5
-2 -1.95 -3.3 0 -0.7953176 -0.6061929 204 204 204 255 0.5 0.5
-1.5 -1.725 -3.525 0 -0.6061929 -0.7953176 204 204 204 255 0.5 0.5
-2 -1.725 -3.525 0 -0.4922211 -0.8704702 204 204 204 255 0.5 0.5
-2 -1.325 -2.9 -1 0 0 204 204 204 255 0.5 0.5
-2 -1.475 -3.625 -1 0 0 204 204 204 255 0.5 0.5
-2 -1.175 -3.625 -1 0 0 204 204 204 255 0.5 0.5
-2 -0.9250002 -3.525 -1 0 0 204 204 204 255 0.5 0.5
-2 -0.7000001 -3.3 -1 0 0 204 204 204 255 0.5 0.5
-2 -0.6000001 -3.05 -1 0 0 204 204 204 255 0.5 0.5
-2 -0.6000001 -2.75 -1 0 0 204 204 204 255 0.5 0.5
-2 -0.7000001 -2.5 -1 0 0 204 204 204 255 0.5 0.5
-2 -0.9250001 -2.275 -1 0 0 204 204 204 255 0.5 0.5
-2 -1.175 -2.175 -1 0 0 204 204 204 255 0.5 0.5
-2 -1.475 -2.175 -1 0 0 204 204 204 255 0.5 0.5
-2 -1.725 -2.275 -1 0 0 204 204 204 255 0.5 0.5
-2 -1.95 -2.5 -1 0 0 204 204 204 255 0.5 0.5
-2 -2.05 -2.75 -1 0 0 204 204 204 255 0.5 0.5
-2 -2.05 -3.05 -1 0 0 204 204 204 255 0.5 0.5
-2 -1.95 -3.3 -1 0 0 204 204 204 255 0.5 0.5
-2 -1.725 -3.525 -1 0 0 204 204 204 255 0.5 0.5
-1.5 -1.325 -2.9 1 0 0 204 204 204 255 0.5 0.5
-1.5 -1.175 -3.625 1 0 0 204 204 204 255 0.5 0.5
-1.5 -1.475 -3.625 1 0 0 204 204 204 255 0.5 0.5
-1.5 -1.725 -3.525 1 0 0 204 204 204 255 0.5 0.5
-1.5 -1.95 -3.3 1 0 0 204 204 204 255 0.5 0.5
-1.5 -2.05 -3.05 1 0 0 204 204 204 255 0.5 0.5
-1.5 -2.05 -2.75 1 0 0 204 204 204 255 0.5 0.5
-1.5 -1.95 -2.5 1 0 0 204 204 204 255 0.5 0.5
-1.5 -1.725 -2.275 1 0 0 204 204 204 255 0.5 0.5
-1.5 -1.475 -2.175 1 0 0 204 204 204 255 0.5 0.5
-1.5 -1.175 -2.175 1 0 0 204 204 204 255 0.5 0.5
-1.5 -0.9250001 -2.275 1 0 0 204 204 204 255 0.5 0.5
-1.5 -0.7000001 -2.5 1 0 0 204 204 204 255 0.5 0.5
-1.5 -0.6000001 -2.75 1 0 0 204 204 204 255 0.5 0.5
-1.5 -0.6000001 -3.05 1 0 0 204 204 204 255 0.5 0.5
-1.5 -0.7000001 -3.3 1 0 0 204 204 204 255 0.5 0.5
-1.5 -0.9250002 -3.525 1 0 0 204 204 204 255 0.5 0.5
-2.125 -0.7749998 5.05 -0.412849 -0.829103 -0.3770198 204 204 204 255 0.5 0.5
-2.125 -0.5999998 5.05 -0.6923729 0.347614 -0.632285 204 204 204 255 0.5 0.5
-2.075 -0.7749998 5.6 -0.638725 -0.3206795 0.6994249 204 204 204 255 0.5 0.5
-2.075 -0.5999998 5.6 -0.4005723 0.8044482 0.4386398 204 204 204 255 0.5 0.5
2.125 -0.7749998 5.05 0.4194264 -0.421156 -0.8041823 204 204 204 255 0.5 0.5
2.125 -0.5999998 5.05 0.6777036 0.6804982 -0.2786397 204 204 204 255 0.5 0.5
2.075 -0.7749998 5.6 0.6509612 -0.6536456 0.3860011 204 204 204 255 0.5 0.5
2.075 -0.5999998 5.6 0.3948309 0.396459 0.8288117 204 204 204 255 0.5 0.5
2.125 -1.05 -4.875 0.412849 -0.829103 0.3770198 204 204 204 255 0.5 0.5
2.125 -0.8750002 -4.875 0.6923729 0.347614 0.632285 204 204 204 255 0.5 0.5
2.075 -1.05 -5.425 0.638725 -0.3206795 -0.6994249 204 204 204 255 0.5 0.5
2.075 -0.8750002 -5.425 0.4005723 0.8044482 -0.4386398 204 204 204 255 0.5 0.5
-2.125 -1.05 -4.875 -0.4194264 -0.421156 0.8041823 204 204 204 255 0.5 0.5
-2.125 -0.8750002 -4.875 -0.6777036 0.6804982 0.2786397 204 204 204 255 0.5 0.5
-2.075 -1.05 -5.425 -0.6509612 -0.6536456 -0.3860011 204 204 204 255 0.5 0.5
-2.075 -0.8750002 -5.425 -0.3948309 0.396459 -0.8288117 204 204 204 255 0.5 0.5
-1.75 -1.075 2.45 0 -0.4472136 -0.8944272 204 204 204 255 0.5 0.5
-1.75 -1.575 2.7 0 -0.9392336 -0.3432786 204 204 204 255 0.5 0.5
1.75 -1.575 2.7 0 -0.7270758 -0.6865572 204 204 204 255 0.5 0.5
1.75 -1.075 2.45 0 -0.4472136 -0.8944272 204 204 204 255 0.5 0.5
-1.75 -1.575 3.2 0 -0.7270758 0.6865572 204 204 204 255 0.5 0.5
1.75 -1.575 3.2 0 -0.9392336 0.3432786 204 204 204 255 0.5 0.5
-1.75 -1.075 3.45 0 -0.4472136 0.8944272 204 204 204 255 0.5 0.5
1.75 -1.075 3.45 0 -0.4472136 0.8944272 204 204 204 255 0.5 0.5
-1.75 -1.075 -3.4 0 -0.4472136 -0.8944272 204 204 204 255 0.5 0.5
-1.75 -1.575 -3.15 0 -0.9392336 -0.3432786 204 204 204 255 0.5 0.5
1.75 -1.575 -3.15 0 -0.7270758 -0.6865572 204 204 204 255 0.5 0.5
1.75 -1.075 -3.4 0 -0.4472136 -0.8944272 204 204 204 255 0.5 0.5
-1.75 -1.575 -2.65 0 -0.7270758 0.6865572 204 204 204 255 0.5 0.5
1.75 -1.575 -2.65 0 -0.9392336 0.3432786 204 204 204 255 0.5 0.5
-1.75 -1.075 -2.4 0 -0.4472136 0.8944272 204 204 204 255 0.5 0.5
1.75 -1.075 -2.4 0 -0.4472136 0.8944272 204 204 204 255 0.5 0.5
0.15 2.08 1.575 0.4870331 0.2614514 -0.8333318 204 204 204 255 0.5 0.5
0.3 2.08 1.725 0.9361139 0.2537528 -0.2435166 204 204 204 255 0.5 0.5
0.165 2.65 1.8 0.7273252 0.5388007 -0.4250786 204 204 204 255 0.5 0.5
0.07499999 2.65 1.71 0.1487048 0.8069142 -0.5716436 204 204 204 255 0.5 0.5
0.3 2.08 2.025 0.8333318 0.2614514 0.4870332 204 204 204 255 0.5 0.5
0.165 2.65 1.95 0.6849536 0.7064631 0.1781809 204 204 204 255 0.5 0.5
0.15 2.08 2.175 0.2435166 0.2537529 0.9361139 204 204 204 255 0.5 0.5
0.07499999 2.65 2.04 0.2965023 0.8091392 0.5073265 204 204 204 255 0.5 0.5
-0.15 2.08 2.175 -0.4870331 0.2614514 0.8333318 204 204 204 255 0.5 0.5
-0.07499999 2.65 2.04 -0.1487048 0.8069142 0.5716436 204 204 204 255 0.5 0.5
-0.3 2.08 2.025 -0.9361139 0.2537528 0.2435166 204 204 204 255 0.5 0.5
-0.165 2.65 1.95 -0.7273252 0.5388007 0.4250786 204 204 204 255 0.5 0.5
-0.3 2.08 1.725 -0.8333318 0.2614514 -0.4870332 204 204 204 255 0.5 0.5
-0.165 2.65 1.8 -0.6849536 0.7064631 -0.1781809 204 204 204 255 0.5 0.5
-0.15 2.08 1.575 -0.2435166 0.2537529 -0.9361139 204 204 204 255 0.5 0.5
-0.07499999 2.65 1.71 -0.2965023 0.8091392 -0.5073265 204 204 204 255 0.5 0.5
3 2 1 0 
3 3 2 0 
3 5 4 1 
3 2 5 1 
3 8 7 6 
3 9 8 6 
3 12 11 10 
3 13 12 10 
3 15 14 11 
3 12 15 11 
3 17 16 14 
3 15 17 14 
3 18 6 7 
3 21 20 19 
3 22 21 19 
3 25 24 23 
3 25 26 24 
3 28 27 26 
3 25 28 26 
3 31 30 29 
3 32 31 29 
3 35 34 33 
3 35 36 34 
3 38 37 36 
3 35 38 36 
3 41 40 39 
3 42 41 39 
3 43 12 13 
3 44 43 13 
3 45 15 12 
3 43 45 12 
3 46 17 15 
3 45 46 15 
3 48 8 47 
3 49 48 47 
3 50 7 8 
3 48 50 8 
3 51 18 7 
3 50 51 7 
3 54 53 52 
3 55 54 52 
3 57 56 53 
3 54 57 53 
3 59 58 56 
3 57 59 56 
3 60 21 22 
3 61 60 22 
3 63 62 21 
3 60 63 21 
3 64 32 62 
3 63 64 62 
3 65 31 32 
3 64 65 32 
3 67 66 31 
3 65 67 31 
3 68 42 66 
3 67 68 66 
3 69 41 42 
3 68 69 42 
3 70 48 49 
3 71 54 55 
3 72 71 55 
3 73 57 54 
3 71 73 54 
3 74 59 57 
3 73 74 57 
3 75 60 61 
3 76 75 61 
3 79 78 77 
3 80 79 77 
3 79 81 78 
3 81 82 78 
3 83 65 64 
3 84 83 64 
3 87 86 85 
3 88 87 85 
3 87 89 86 
3 89 90 86 
3 91 69 68 
3 92 91 68 
3 95 94 93 
3 96 95 93 
3 98 97 94 
3 95 98 94 
3 50 48 70 
3 99 50 70 
3 47 8 9 
3 101 46 100 
3 100 46 45 
3 102 100 45 
3 102 45 43 
3 102 43 103 
3 103 43 44 
3 53 104 52 
3 52 104 105 
3 56 106 53 
3 53 106 104 
3 58 107 56 
3 56 107 106 
3 99 51 50 
3 25 23 108 
3 108 23 109 
3 82 111 110 
3 82 110 78 
3 90 113 112 
3 90 112 86 
3 35 33 114 
3 114 33 115 
3 117 0 116 
3 118 117 116 
3 120 119 3 
3 121 120 3 
3 124 123 122 
3 125 124 122 
3 127 126 123 
3 124 127 123 
3 3 122 121 
3 0 125 122 
3 3 0 122 
3 0 117 125 
3 81 79 96 
3 89 96 93 
3 89 81 96 
3 90 89 93 
3 87 111 82 
3 87 88 111 
3 89 82 81 
3 89 87 82 
3 93 113 90 
3 93 128 113 
3 129 79 80 
3 129 96 79 
3 132 131 130 
3 130 133 132 
3 131 135 134 
3 134 130 131 
3 135 137 136 
3 136 134 135 
3 137 139 138 
3 138 136 137 
3 139 141 140 
3 140 138 139 
3 141 143 142 
3 142 140 141 
3 143 145 144 
3 144 142 143 
3 145 147 146 
3 146 144 145 
3 147 149 148 
3 148 146 147 
3 149 151 150 
3 150 148 149 
3 151 153 152 
3 152 150 151 
3 153 155 154 
3 154 152 153 
3 155 157 156 
3 156 154 155 
3 157 159 158 
3 158 156 157 
3 159 161 160 
3 160 158 159 
3 161 132 133 
3 133 160 161 
3 164 163 162 
3 165 164 162 
3 166 165 162 
3 167 166 162 
3 168 167 162 
3 169 168 162 
3 170 169 162 
3 171 170 162 
3 172 171 162 
3 173 172 162 
3 174 173 162 
3 175 174 162 
3 176 175 162 
3 177 176 162 
3 178 177 162 
3 163 178 162 
3 181 180 179 
3 182 181 179 
3 183 182 179 
3 184 183 179 
3 185 184 179 
3 186 185 179 
3 187 186 179 
3 188 187 179 
3 189 188 179 
3 190 189 179 
3 191 190 179 
3 192 191 179 
3 193 192 179 
3 194 193 179 
3 195 194 179 
3 180 195 179 
3 198 197 196 
3 196 199 198 
3 197 201 200 
3 200 196 197 
3 201 203 202 
3 202 200 201 
3 203 205 204 
3 204 202 203 
3 205 207 206 
3 206 204 205 
3 207 209 208 
3 208 206 207 
3 209 211 210 
3 210 208 209 
3 211 213 212 
3 212 210 211 
3 213 215 214 
3 214 212 213 
3 215 217 216 
3 216 214 215 
3 217 219 218 
3 218 216 217 
3 219 221 220 
3 220 218 219 
3 221 223 222 
3 222 220 221 
3 223 225 224 
3 224 222 223 
3 225 227 226 
3 226 224 225 
3 227 198 199 
3 199 226 227 
3 230 229 228 
3 231 230 228 
3 232 231 228 
3 233 232 228 
3 234 233 228 
3 235 234 228 
3 236 235 228 
3 237 236 228 
3 238 237 228 
3 239 238 228 
3 240 239 228 
3 241 240 228 
3 242 241 228 
3 243 242 228 
3 244 243 228 
3 229 244 228 
3 247 246 245 
3 248 247 245 
3 249 248 245 
3 250 249 245 
3 251 250 245 
3 252 251 245 
3 253 252 245 
3 254 253 245 
3 255 254 245 
3 256 255 245 
3 257 256 245 
3 258 257 245 
3 259 258 245 
3 260 259 245 
3 261 260 245 
3 246 261 245 
3 264 263 262 
3 262 265 264 
3 263 267 266 
3 266 262 263 
3 267 269 268 
3 268 266 267 
3 269 271 270 
3 270 268 269 
3 271 273 272 
3 272 270 271 
3 273 275 274 
3 274 272 273 
3 275 277 276 
3 276 274 275 
3 277 279 278 
3 278 276 277 
3 279 281 280 
3 280 278 279 
3 281 283 282 
3 282 280 281 
3 283 285 284 
3 284 282 283 
3 285 287 286 
3 286 284 285 
3 287 289 288 
3 288 286 287 
3 289 291 290 
3 290 288 289 
3 291 293 292 
3 292 290 291 
3 293 264 265 
3 265 292 293 
3 296 295 294 
3 297 296 294 
3 298 297 294 
3 299 298 294 
3 300 299 294 
3 301 300 294 
3 302 301 294 
3 303 302 294 
3 304 303 294 
3 305 304 294 
3 306 305 294 
3 307 306 294 
3 308 307 294 
3 309 308 294 
3 310 309 294 
3 295 310 294 
3 313 312 311 
3 314 313 311 
3 315 314 311 
3 316 315 311 
3 317 316 311 
3 318 317 311 
3 319 318 311 
3 320 319 311 
3 321 320 311 
3 322 321 311 
3 323 322 311 
3 324 323 311 
3 325 324 311 
3 326 325 311 
3 327 326 311 
3 312 327 311 
3 330 329 328 
3 328 331 330 
3 329 333 332 
3 332 328 329 
3 333 335 334 
3 334 332 333 
3 335 337 336 
3 336 334 335 
3 337 339 338 
3 338 336 337 
3 339 341 340 
3 340 338 339 
3 341 343 342 
3 342 340 341 
3 343 345 344 
3 344 342 343 
3 345 347 346 
3 346 344 345 
3 347 349 348 
3 348 346 347 
3 349 351 350 
3 350 348 349 
3 351 353 352 
3 352 350 351 
3 353 355 354 
3 354 352 353 
3 355 357 356 
3 356 354 355 
3 357 359 358 
3 358 356 357 
3 359 330 331 
3 331 358 359 
3 362 361 360 
3 363 362 360 
3 364 363 360 
3 365 364 360 
3 366 365 360 
3 367 366 360 
3 368 367 360 
3 369 368 360 
3 370 369 360 
3 371 370 360 
3 372 371 360 
3 373 372 360 
3 374 373 360 
3 375 374 360 
3 376 375 360 
3 361 376 360 
3 379 378 377 
3 380 379 377 
3 381 380 377 
3 382 381 377 
3 383 382 377 
3 384 383 377 
3 385 384 377 
3 386 385 377 
3 387 386 377 
3 388 387 377 
3 389 388 377 
3 390 389 377 
3 391 390 377 
3 392 391 377 
3 393 392 377 
3 378 393 377 
3 396 395 394 
3 396 397 395 
3 398 394 395 
3 399 398 395 
3 400 396 394 
3 398 400 394 
3 401 397 396 
3 400 401 396 
3 399 395 397 
3 401 399 397 
3 399 400 398 
3 399 401 400 
3 404 403 402 
3 404 405 403 
3 406 402 403 
3 407 406 403 
3 408 404 402 
3 406 408 402 
3 409 405 404 
3 408 409 404 
3 407 403 405 
3 409 407 405 
3 407 408 406 
3 407 409 408 
3 412 411 410 
3 413 412 410 
3 415 414 411 
3 412 415 411 
3 417 416 414 
3 415 417 414 
3 420 419 418 
3 421 420 418 
3 423 422 419 
3 420 423 419 
3 425 424 422 
3 423 425 422 
3 428 427 426 
3 429 428 426 
3 431 430 427 
3 428 431 427 
3 433 432 430 
3 431 433 430 
3 435 434 432 
3 433 435 432 
3 437 436 434 
3 435 437 434 
3 439 438 436 
3 437 439 436 
3 441 440 438 
3 439 441 438 
3 429 426 440 
3 441 429 440 
3 429 433 431 
3 428 429 431 
3 441 435 433 
3 429 441 433 
3 439 437 435 
3 441 439 435 
