ply
format ascii 1.0
comment VCGLIB generated
element vertex 442
property float x
property float y
property float z
property float nx
property float ny
property float nz
property uchar red
property uchar green
property uchar blue
property uchar alpha
property float texture_u
property float texture_v
element face 446
property list uchar int vertex_indices
end_header
82 -215 5 0.9988991 -0.0105904 0.04569982 204 204 204 255 0.5 0.5
80 -191 29 0.9891703 0.001672656 0.1467631 204 204 204 255 0.5 0.5
80 205 23 0.9917357 0.001020963 0.1282938 204 204 204 255 0.5 0.5
83 212 0 0.999836 0.01507848 -0.01003522 204 204 204 255 0.5 0.5
70 -138 82 0.9828683 0.001141211 0.1843056 204 204 204 255 0.5 0.5
70 185 80 0.9838467 0.001886502 0.1790028 204 204 204 255 0.5 0.5
70 -138 82 0.4926074 -0.1424721 0.8585101 204 204 204 255 0.5 0.5
60 -127 89 0.1557462 -0.2183818 0.9633548 204 204 204 255 0.5 0.5
60 173 89 0.2356883 0.2025013 0.9504969 204 204 204 255 0.5 0.5
70 185 80 0.3974989 0.3151033 0.8618031 204 204 204 255 0.5 0.5
80 209 -49 0.1259901 0.9899465 -0.06428415 204 204 204 255 0.5 0.5
83 212 0 0.1222332 0.976462 0.1777107 204 204 204 255 0.5 0.5
50 216 0 0.06230761 0.9913265 0.1157138 204 204 204 255 0.5 0.5
50 213 -49 0.04405933 0.9971618 -0.06105072 204 204 204 255 0.5 0.5
80 205 23 0.1143046 0.935169 0.3352513 204 204 204 255 0.5 0.5
50 209 23 0.06090583 0.9427993 0.3277501 204 204 204 255 0.5 0.5
70 185 80 0.09342392 0.9342392 0.3441934 204 204 204 255 0.5 0.5
50 187 80 0.07238977 0.9323012 0.3543644 204 204 204 255 0.5 0.5
50 -142 84 0.08645616 -0.3664425 0.9264153 204 204 204 255 0.5 0.5
80 -215 -46 0.008918552 -0.09353931 -0.9955757 204 204 204 255 0.5 0.5
80 -154 -52 0 -0.09788827 -0.9951974 204 204 204 255 0.5 0.5
50 -154 -52 0.003570997 -0.05531106 -0.9984628 204 204 204 255 0.5 0.5
50 -221 -46 0.005945618 -0.08919372 -0.9959966 204 204 204 255 0.5 0.5
83 -142 -28 0.4845672 0.4305668 -0.7614505 204 204 204 255 0.5 0.5
84 -119 -20 0.6854226 -0.004071251 -0.7281342 204 204 204 255 0.5 0.5
50 -120 -52 0.6365198 -0.008068016 -0.7712182 204 204 204 255 0.5 0.5
83 -94 -29 0.4970915 -0.4751555 -0.7260354 204 204 204 255 0.5 0.5
80 -86 -53 0 -0.9486833 -0.3162278 204 204 204 255 0.5 0.5
50 -86 -53 0.3652518 -0.6080357 -0.7048998 204 204 204 255 0.5 0.5
80 -86 -53 0 0 -1 204 204 204 255 0.5 0.5
80 82 -53 0 0 -1 204 204 204 255 0.5 0.5
50 82 -53 0 0.02282884 -0.9997394 204 204 204 255 0.5 0.5
50 -86 -53 0 -0.007350359 -0.999973 204 204 204 255 0.5 0.5
83 93 -30 0.464099 0.4713543 -0.7499581 204 204 204 255 0.5 0.5
84 118 -19 0.6854166 -0.003617808 -0.7281421 204 204 204 255 0.5 0.5
50 117 -51 0.6145197 0.01739669 -0.7887096 204 204 204 255 0.5 0.5
83 142 -30 0.4730572 -0.4882938 -0.7333391 204 204 204 255 0.5 0.5
80 148 -50 0 -0.9578263 -0.2873479 204 204 204 255 0.5 0.5
50 148 -50 0.3342049 -0.5959041 -0.7302092 204 204 204 255 0.5 0.5
80 148 -50 0.001092748 0.01588701 -0.9998732 204 204 204 255 0.5 0.5
80 209 -49 0.002185493 0.0163912 -0.9998633 204 204 204 255 0.5 0.5
50 213 -49 0.0007284983 0.01571894 -0.9998762 204 204 204 255 0.5 0.5
50 148 -50 0 0.01959794 -0.999808 204 204 204 255 0.5 0.5
-50 216 0 -0.06219152 0.9965016 0.055829 204 204 204 255 0.5 0.5
-50 213 -49 -0.0661051 0.9959478 -0.06097639 204 204 204 255 0.5 0.5
-50 209 23 -0.06090328 0.9467279 0.3162231 204 204 204 255 0.5 0.5
-50 187 80 -0.0543 0.9329185 0.3559699 204 204 204 255 0.5 0.5
50 187 80 0.01895227 0.5502042 0.8348151 204 204 204 255 0.5 0.5
-60 173 89 -0.1573301 0.3576279 0.9205159 204 204 204 255 0.5 0.5
-50 187 80 -0.02843015 0.5548291 0.8314785 204 204 204 255 0.5 0.5
-60 -127 89 -0.2517694 -0.1285314 0.9592142 204 204 204 255 0.5 0.5
-50 -142 84 -0.05760362 -0.3500546 0.9349565 204 204 204 255 0.5 0.5
50 -142 84 0.1024758 -0.6842036 0.7220556 204 204 204 255 0.5 0.5
50 -200 29 0.08880527 -0.727005 0.6808652 204 204 204 255 0.5 0.5
-50 -200 29 -0.08879374 -0.7139016 0.6945935 204 204 204 255 0.5 0.5
-50 -142 84 -0.136554 -0.6812922 0.719162 204 204 204 255 0.5 0.5
50 -221 4 0.08893765 -0.9702346 0.2252442 204 204 204 255 0.5 0.5
-50 -221 4 -0.0895898 -0.9356316 0.3414195 204 204 204 255 0.5 0.5
50 -221 -46 0.09853762 -0.9951333 0 204 204 204 255 0.5 0.5
-50 -221 -46 -0.06565599 -0.9978424 0 204 204 204 255 0.5 0.5
-50 -154 -52 0 -0.06694652 -0.9977566 204 204 204 255 0.5 0.5
-50 -221 -46 -0.006524967 -0.09209141 -0.9957292 204 204 204 255 0.5 0.5
50 -120 -52 0 -0.01960125 -0.9998079 204 204 204 255 0.5 0.5
-50 -120 -52 0 -0.009800626 -0.999952 204 204 204 255 0.5 0.5
-50 -86 -53 0 -0.01176084 -0.9999309 204 204 204 255 0.5 0.5
-50 82 -53 0 0.01426681 -0.9998983 204 204 204 255 0.5 0.5
50 117 -51 0 0.04051357 -0.999179 204 204 204 255 0.5 0.5
-50 117 -51 0 0.04878363 -0.9988094 204 204 204 255 0.5 0.5
-50 148 -50 -0.0004102206 0.02232862 -0.9997506 204 204 204 255 0.5 0.5
-50 213 -49 -0.0006836787 0.01538279 -0.9998814 204 204 204 255 0.5 0.5
-70 185 80 -0.4697283 0.2066938 0.8582733 204 204 204 255 0.5 0.5
-80 -191 29 -0.2042688 -0.6765859 0.7074643 204 204 204 255 0.5 0.5
-70 -138 82 -0.20558 -0.6723371 0.7111257 204 204 204 255 0.5 0.5
-82 -215 5 -0.1819372 -0.862003 0.4731276 204 204 204 255 0.5 0.5
-80 -215 -46 -0.1903137 -0.9817167 -0.003617776 204 204 204 255 0.5 0.5
-80 -154 -52 -0.009787514 -0.09353778 -0.9955677 204 204 204 255 0.5 0.5
-80 -215 -46 -0.0195739 -0.09786952 -0.9950067 204 204 204 255 0.5 0.5
-50 -154 -52 -0.3564117 0.5419919 -0.7610621 204 204 204 255 0.5 0.5
-50 -120 -52 -0.6365198 -0.008068016 -0.7712182 204 204 204 255 0.5 0.5
-83 -142 -28 -0.8703385 0.2133284 -0.443849 204 204 204 255 0.5 0.5
-80 -154 -52 -0.6876346 0.6113725 -0.3916406 204 204 204 255 0.5 0.5
-84 -119 -20 -0.9456336 -0.008372265 -0.3251261 204 204 204 255 0.5 0.5
-83 -94 -29 -0.8641356 -0.244811 -0.4397014 204 204 204 255 0.5 0.5
-80 82 -53 0 0 -1 204 204 204 255 0.5 0.5
-80 -86 -53 0 0 -1 204 204 204 255 0.5 0.5
-50 82 -53 -0.3350447 0.5674949 -0.7521268 204 204 204 255 0.5 0.5
-50 117 -51 -0.6145197 0.01739669 -0.7887096 204 204 204 255 0.5 0.5
-83 93 -30 -0.848775 0.2492222 -0.4663361 204 204 204 255 0.5 0.5
-80 82 -53 -0.6823859 0.6208183 -0.38592 204 204 204 255 0.5 0.5
-84 118 -19 -0.9727222 0.001729876 -0.2319667 204 204 204 255 0.5 0.5
-83 142 -30 -0.8077989 -0.2914115 -0.512387 204 204 204 255 0.5 0.5
-80 209 -49 -0.001025518 0.01588701 -0.9998733 204 204 204 255 0.5 0.5
-80 148 -50 0 0.01639124 -0.9998657 204 204 204 255 0.5 0.5
-83 212 0 -0.9999006 0.01280401 0.005904055 204 204 204 255 0.5 0.5
-80 205 23 -0.9867913 0.001937028 0.1619856 204 204 204 255 0.5 0.5
-80 -191 29 -0.9911882 0.001131532 0.1324567 204 204 204 255 0.5 0.5
-82 -215 5 -0.9994804 -0.01305867 0.02946894 204 204 204 255 0.5 0.5
-70 185 80 -0.9848924 0.001072225 0.1731644 204 204 204 255 0.5 0.5
-70 -138 82 -0.9840375 0.001920476 0.1779508 204 204 204 255 0.5 0.5
-70 -138 82 -0.3918656 -0.2132786 0.8949601 204 204 204 255 0.5 0.5
-80 205 23 -0.1143046 0.935169 0.3352513 204 204 204 255 0.5 0.5
-70 185 80 -0.09342392 0.9342392 0.3441934 204 204 204 255 0.5 0.5
-83 212 0 -0.1222332 0.976462 0.1777107 204 204 204 255 0.5 0.5
-80 209 -49 -0.1259901 0.9899465 -0.06428415 204 204 204 255 0.5 0.5
80 -191 29 0.2042688 -0.6765859 0.7074643 204 204 204 255 0.5 0.5
70 -138 82 0.20558 -0.6723371 0.7111257 204 204 204 255 0.5 0.5
82 -215 5 0.1819372 -0.862003 0.4731276 204 204 204 255 0.5 0.5
80 -215 -46 0.1903137 -0.9817167 -0.003617776 204 204 204 255 0.5 0.5
50 -154 -52 0.3564117 0.5419919 -0.7610621 204 204 204 255 0.5 0.5
80 -154 -52 0 0.8944272 -0.4472136 204 204 204 255 0.5 0.5
-50 -86 -53 -0.3652518 -0.6080357 -0.7048998 204 204 204 255 0.5 0.5
-80 -86 -53 -0.8732046 -0.4178615 -0.2508098 204 204 204 255 0.5 0.5
-50 148 -50 -0.3342049 -0.5959041 -0.7302092 204 204 204 255 0.5 0.5
-80 148 -50 -0.8896315 -0.4029849 -0.2148463 204 204 204 255 0.5 0.5
50 82 -53 0.3350447 0.5674949 -0.7521268 204 204 204 255 0.5 0.5
80 82 -53 0 0.9021342 -0.4314555 204 204 204 255 0.5 0.5
80 -215 -46 0.9966582 -0.02152917 -0.07879698 204 204 204 255 0.5 0.5
83 -142 -28 0.9975883 -0.02452384 -0.06493237 204 204 204 255 0.5 0.5
80 -154 -52 0.9929103 -0.01163567 -0.118296 204 204 204 255 0.5 0.5
80 209 -49 0.9981268 0.001002807 -0.0611712 204 204 204 255 0.5 0.5
80 148 -50 0.994923 0.02871829 -0.09645478 204 204 204 255 0.5 0.5
83 142 -30 0.9952664 0.0382828 -0.08932653 204 204 204 255 0.5 0.5
84 118 -19 0.9997653 0.003637131 -0.02135867 204 204 204 255 0.5 0.5
83 93 -30 0.9934384 -0.0003810056 -0.114368 204 204 204 255 0.5 0.5
83 -94 -29 0.9941903 -0.0002274276 -0.107637 204 204 204 255 0.5 0.5
84 -119 -20 0.9996909 -0.01015274 -0.0226946 204 204 204 255 0.5 0.5
80 82 -53 0.9916004 0 -0.1293392 204 204 204 255 0.5 0.5
80 -86 -53 0.9919288 -0.0003322278 -0.1267964 204 204 204 255 0.5 0.5
-80 209 -49 -0.9981268 0.001002807 -0.0611712 204 204 204 255 0.5 0.5
-80 -215 -46 -0.9966582 -0.02152917 -0.07879698 204 204 204 255 0.5 0.5
60 -148 -47 0 -0.992054 0.1258127 204 204 204 255 0.5 0.5
80 -148 -47 0 -0.9678247 0.2516255 204 204 204 255 0.5 0.5
80 -148 -59 0 -0.992054 -0.1258128 204 204 204 255 0.5 0.5
60 -148 -59 0 -0.9678247 -0.2516255 204 204 204 255 0.5 0.5
60 -144 -37 0 -0.8704702 0.4922211 204 204 204 255 0.5 0.5
80 -144 -37 0 -0.7953176 0.6061929 204 204 204 255 0.5 0.5
60 -135 -28 0 -0.6061929 0.7953176 204 204 204 255 0.5 0.5
80 -135 -28 0 -0.492221 0.8704703 204 204 204 255 0.5 0.5
60 -125 -24 0 -0.2516253 0.9678248 204 204 204 255 0.5 0.5
80 -125 -24 0 -0.1258126 0.992054 204 204 204 255 0.5 0.5
60 -113 -24 0 0.1258127 0.992054 204 204 204 255 0.5 0.5
80 -113 -24 0 0.2516255 0.9678247 204 204 204 255 0.5 0.5
60 -103 -28 0 0.4922211 0.8704702 204 204 204 255 0.5 0.5
80 -103 -28 0 0.6061929 0.7953176 204 204 204 255 0.5 0.5
60 -93.99999 -37 0 0.7953176 0.6061929 204 204 204 255 0.5 0.5
80 -93.99999 -37 0 0.8704702 0.4922211 204 204 204 255 0.5 0.5
60 -89.99999 -47 0 0.9678247 0.2516255 204 204 204 255 0.5 0.5
80 -89.99999 -47 0 0.992054 0.1258127 204 204 204 255 0.5 0.5
60 -89.99999 -59 0 0.992054 -0.1258128 204 204 204 255 0.5 0.5
80 -89.99999 -59 0 0.9678247 -0.2516255 204 204 204 255 0.5 0.5
60 -93.99999 -69 0 0.8704702 -0.4922211 204 204 204 255 0.5 0.5
80 -93.99999 -69 0 0.7953176 -0.606193 204 204 204 255 0.5 0.5
60 -103 -78 0 0.6061929 -0.7953176 204 204 204 255 0.5 0.5
80 -103 -78 0 0.4922211 -0.8704702 204 204 204 255 0.5 0.5
60 -113 -82 0 0.2516255 -0.9678247 204 204 204 255 0.5 0.5
80 -113 -82 0 0.1258127 -0.992054 204 204 204 255 0.5 0.5
60 -125 -82 0 -0.1258126 -0.992054 204 204 204 255 0.5 0.5
80 -125 -82 0 -0.2516253 -0.9678248 204 204 204 255 0.5 0.5
60 -135 -78 0 -0.492221 -0.8704703 204 204 204 255 0.5 0.5
80 -135 -78 0 -0.6061929 -0.7953176 204 204 204 255 0.5 0.5
60 -144 -69 0 -0.7953176 -0.606193 204 204 204 255 0.5 0.5
80 -144 -69 0 -0.8704702 -0.4922211 204 204 204 255 0.5 0.5
80 -119 -53 1 0 0 204 204 204 255 0.5 0.5
80 -148 -59 1 0 0 204 204 204 255 0.5 0.5
80 -148 -47 1 0 0 204 204 204 255 0.5 0.5
80 -144 -37 1 0 0 204 204 204 255 0.5 0.5
80 -135 -28 1 0 0 204 204 204 255 0.5 0.5
80 -125 -24 1 0 0 204 204 204 255 0.5 0.5
80 -113 -24 1 0 0 204 204 204 255 0.5 0.5
80 -103 -28 1 0 0 204 204 204 255 0.5 0.5
80 -93.99999 -37 1 0 0 204 204 204 255 0.5 0.5
80 -89.99999 -47 1 0 0 204 204 204 255 0.5 0.5
80 -89.99999 -59 1 0 0 204 204 204 255 0.5 0.5
80 -93.99999 -69 1 0 0 204 204 204 255 0.5 0.5
80 -103 -78 1 0 0 204 204 204 255 0.5 0.5
80 -113 -82 1 0 0 204 204 204 255 0.5 0.5
80 -125 -82 1 0 0 204 204 204 255 0.5 0.5
80 -135 -78 1 0 0 204 204 204 255 0.5 0.5
80 -144 -69 1 0 0 204 204 204 255 0.5 0.5
60 -119 -53 -1 0 0 204 204 204 255 0.5 0.5
60 -148 -47 -1 0 0 204 204 204 255 0.5 0.5
60 -148 -59 -1 0 0 204 204 204 255 0.5 0.5
60 -144 -69 -1 0 0 204 204 204 255 0.5 0.5
60 -135 -78 -1 0 0 204 204 204 255 0.5 0.5
60 -125 -82 -1 0 0 204 204 204 255 0.5 0.5
60 -113 -82 -1 0 0 204 204 204 255 0.5 0.5
60 -103 -78 -1 0 0 204 204 204 255 0.5 0.5
60 -93.99999 -69 -1 0 0 204 204 204 255 0.5 0.5
60 -89.99999 -59 -1 0 0 204 204 204 255 0.5 0.5
60 -89.99999 -47 -1 0 0 204 204 204 255 0.5 0.5
60 -93.99999 -37 -1 0 0 204 204 204 255 0.5 0.5
60 -103 -28 -1 0 0 204 204 204 255 0.5 0.5
60 -113 -24 -1 0 0 204 204 204 255 0.5 0.5
60 -125 -24 -1 0 0 204 204 204 255 0.5 0.5
60 -135 -28 -1 0 0 204 204 204 255 0.5 0.5
60 -144 -37 -1 0 0 204 204 204 255 0.5 0.5
-60 -89.99999 -47 0 0.992054 0.1258127 204 204 204 255 0.5 0.5
-80 -89.99999 -47 0 0.9678247 0.2516255 204 204 204 255 0.5 0.5
-80 -89.99999 -59 0 0.992054 -0.1258128 204 204 204 255 0.5 0.5
-60 -89.99999 -59 0 0.9678247 -0.2516255 204 204 204 255 0.5 0.5
-60 -93.99999 -37 0 0.8704702 0.4922211 204 204 204 255 0.5 0.5
-80 -93.99999 -37 0 0.7953176 0.6061929 204 204 204 255 0.5 0.5
-60 -103 -28 0 0.6061929 0.7953176 204 204 204 255 0.5 0.5
-80 -103 -28 0 0.4922211 0.8704702 204 204 204 255 0.5 0.5
-60 -113 -24 0 0.2516255 0.9678247 204 204 204 255 0.5 0.5
-80 -113 -24 0 0.1258127 0.992054 204 204 204 255 0.5 0.5
-60 -125 -24 0 -0.1258126 0.992054 204 204 204 255 0.5 0.5
-80 -125 -24 0 -0.2516253 0.9678248 204 204 204 255 0.5 0.5
-60 -135 -28 0 -0.492221 0.8704703 204 204 204 255 0.5 0.5
-80 -135 -28 0 -0.6061929 0.7953176 204 204 204 255 0.5 0.5
-60 -144 -37 0 -0.7953176 0.6061929 204 204 204 255 0.5 0.5
-80 -144 -37 0 -0.8704702 0.4922211 204 204 204 255 0.5 0.5
-60 -148 -47 0 -0.9678247 0.2516255 204 204 204 255 0.5 0.5
-80 -148 -47 0 -0.992054 0.1258127 204 204 204 255 0.5 0.5
-60 -148 -59 0 -0.992054 -0.1258128 204 204 204 255 0.5 0.5
-80 -148 -59 0 -0.9678247 -0.2516255 204 204 204 255 0.5 0.5
-60 -144 -69 0 -0.8704702 -0.4922211 204 204 204 255 0.5 0.5
-80 -144 -69 0 -0.7953176 -0.606193 204 204 204 255 0.5 0.5
-60 -135 -78 0 -0.6061929 -0.7953176 204 204 204 255 0.5 0.5
-80 -135 -78 0 -0.492221 -0.8704703 204 204 204 255 0.5 0.5
-60 -125 -82 0 -0.2516253 -0.9678248 204 204 204 255 0.5 0.5
-80 -125 -82 0 -0.1258126 -0.992054 204 204 204 255 0.5 0.5
-60 -113 -82 0 0.1258127 -0.992054 204 204 204 255 0.5 0.5
-80 -113 -82 0 0.2516255 -0.9678247 204 204 204 255 0.5 0.5
-60 -103 -78 0 0.4922211 -0.8704702 204 204 204 255 0.5 0.5
-80 -103 -78 0 0.6061929 -0.7953176 204 204 204 255 0.5 0.5
-60 -93.99999 -69 0 0.7953176 -0.606193 204 204 204 255 0.5 0.5
-80 -93.99999 -69 0 0.8704702 -0.4922211 204 204 204 255 0.5 0.5
-80 -119 -53 -1 0 0 204 204 204 255 0.5 0.5
-80 -89.99999 -59 -1 0 0 204 204 204 255 0.5 0.5
-80 -89.99999 -47 -1 0 0 204 204 204 255 0.5 0.5
-80 -93.99999 -37 -1 0 0 204 204 204 255 0.5 0.5
-80 -103 -28 -1 0 0 204 204 204 255 0.5 0.5
-80 -113 -24 -1 0 0 204 204 204 255 0.5 0.5
-80 -125 -24 -1 0 0 204 204 204 255 0.5 0.5
-80 -135 -28 -1 0 0 204 204 204 255 0.5 0.5
-80 -144 -37 -1 0 0 204 204 204 255 0.5 0.5
-80 -148 -47 -1 0 0 204 204 204 255 0.5 0.5
-80 -148 -59 -1 0 0 204 204 204 255 0.5 0.5
-80 -144 -69 -1 0 0 204 204 204 255 0.5 0.5
-80 -135 -78 -1 0 0 204 204 204 255 0.5 0.5
-80 -125 -82 -1 0 0 204 204 204 255 0.5 0.5
-80 -113 -82 -1 0 0 204 204 204 255 0.5 0.5
-80 -103 -78 -1 0 0 204 204 204 255 0.5 0.5
-80 -93.99999 -69 -1 0 0 204 204 204 255 0.5 0.5
-60 -119 -53 1 0 0 204 204 204 255 0.5 0.5
-60 -89.99999 -47 1 0 0 204 204 204 255 0.5 0.5
-60 -89.99999 -59 1 0 0 204 204 204 255 0.5 0.5
-60 -93.99999 -69 1 0 0 204 204 204 255 0.5 0.5
-60 -103 -78 1 0 0 204 204 204 255 0.5 0.5
-60 -113 -82 1 0 0 204 204 204 255 0.5 0.5
-60 -125 -82 1 0 0 204 204 204 255 0.5 0.5
-60 -135 -78 1 0 0 204 204 204 255 0.5 0.5
-60 -144 -69 1 0 0 204 204 204 255 0.5 0.5
-60 -148 -59 1 0 0 204 204 204 255 0.5 0.5
-60 -148 -47 1 0 0 204 204 204 255 0.5 0.5
-60 -144 -37 1 0 0 204 204 204 255 0.5 0.5
-60 -135 -28 1 0 0 204 204 204 255 0.5 0.5
-60 -125 -24 1 0 0 204 204 204 255 0.5 0.5
-60 -113 -24 1 0 0 204 204 204 255 0.5 0.5
-60 -103 -28 1 0 0 204 204 204 255 0.5 0.5
-60 -93.99999 -37 1 0 0 204 204 204 255 0.5 0.5
60 87 -47 0 -0.992054 0.1258127 204 204 204 255 0.5 0.5
80 87 -47 0 -0.9678247 0.2516255 204 204 204 255 0.5 0.5
80 87 -59 0 -0.992054 -0.1258128 204 204 204 255 0.5 0.5
60 87 -59 0 -0.9678247 -0.2516255 204 204 204 255 0.5 0.5
60 91 -37 0 -0.8704702 0.4922211 204 204 204 255 0.5 0.5
80 91 -37 0 -0.7953176 0.6061929 204 204 204 255 0.5 0.5
60 100 -28 0 -0.6061929 0.7953176 204 204 204 255 0.5 0.5
80 100 -28 0 -0.4922211 0.8704702 204 204 204 255 0.5 0.5
60 110 -24 0 -0.2516255 0.9678247 204 204 204 255 0.5 0.5
80 110 -24 0 -0.1258127 0.992054 204 204 204 255 0.5 0.5
60 122 -24 0 0.1258127 0.992054 204 204 204 255 0.5 0.5
80 122 -24 0 0.2516255 0.9678247 204 204 204 255 0.5 0.5
60 132 -28 0 0.4922211 0.8704702 204 204 204 255 0.5 0.5
80 132 -28 0 0.6061929 0.7953176 204 204 204 255 0.5 0.5
60 141 -37 0 0.7953176 0.6061929 204 204 204 255 0.5 0.5
80 141 -37 0 0.8704702 0.4922211 204 204 204 255 0.5 0.5
60 145 -47 0 0.9678247 0.2516255 204 204 204 255 0.5 0.5
80 145 -47 0 0.992054 0.1258127 204 204 204 255 0.5 0.5
60 145 -59 0 0.992054 -0.1258128 204 204 204 255 0.5 0.5
80 145 -59 0 0.9678247 -0.2516255 204 204 204 255 0.5 0.5
60 141 -69 0 0.8704702 -0.4922211 204 204 204 255 0.5 0.5
80 141 -69 0 0.7953176 -0.606193 204 204 204 255 0.5 0.5
60 132 -78 0 0.6061929 -0.7953176 204 204 204 255 0.5 0.5
80 132 -78 0 0.4922211 -0.8704702 204 204 204 255 0.5 0.5
60 122 -82 0 0.2516255 -0.9678247 204 204 204 255 0.5 0.5
80 122 -82 0 0.1258127 -0.992054 204 204 204 255 0.5 0.5
60 110 -82 0 -0.1258127 -0.992054 204 204 204 255 0.5 0.5
80 110 -82 0 -0.2516255 -0.9678247 204 204 204 255 0.5 0.5
60 100 -78 0 -0.4922211 -0.8704702 204 204 204 255 0.5 0.5
80 100 -78 0 -0.6061929 -0.7953176 204 204 204 255 0.5 0.5
60 91 -69 0 -0.7953176 -0.606193 204 204 204 255 0.5 0.5
80 91 -69 0 -0.8704702 -0.4922211 204 204 204 255 0.5 0.5
80 116 -53 1 0 0 204 204 204 255 0.5 0.5
80 87 -59 1 0 0 204 204 204 255 0.5 0.5
80 87 -47 1 0 0 204 204 204 255 0.5 0.5
80 91 -37 1 0 0 204 204 204 255 0.5 0.5
80 100 -28 1 0 0 204 204 204 255 0.5 0.5
80 110 -24 1 0 0 204 204 204 255 0.5 0.5
80 122 -24 1 0 0 204 204 204 255 0.5 0.5
80 132 -28 1 0 0 204 204 204 255 0.5 0.5
80 141 -37 1 0 0 204 204 204 255 0.5 0.5
80 145 -47 1 0 0 204 204 204 255 0.5 0.5
80 145 -59 1 0 0 204 204 204 255 0.5 0.5
80 141 -69 1 0 0 204 204 204 255 0.5 0.5
80 132 -78 1 0 0 204 204 204 255 0.5 0.5
80 122 -82 1 0 0 204 204 204 255 0.5 0.5
80 110 -82 1 0 0 204 204 204 255 0.5 0.5
80 100 -78 1 0 0 204 204 204 255 0.5 0.5
80 91 -69 1 0 0 204 204 204 255 0.5 0.5
60 116 -53 -1 0 0 204 204 204 255 0.5 0.5
60 87 -47 -1 0 0 204 204 204 255 0.5 0.5
60 87 -59 -1 0 0 204 204 204 255 0.5 0.5
60 91 -69 -1 0 0 204 204 204 255 0.5 0.5
60 100 -78 -1 0 0 204 204 204 255 0.5 0.5
60 110 -82 -1 0 0 204 204 204 255 0.5 0.5
60 122 -82 -1 0 0 204 204 204 255 0.5 0.5
60 132 -78 -1 0 0 204 204 204 255 0.5 0.5
60 141 -69 -1 0 0 204 204 204 255 0.5 0.5
60 145 -59 -1 0 0 204 204 204 255 0.5 0.5
60 145 -47 -1 0 0 204 204 204 255 0.5 0.5
60 141 -37 -1 0 0 204 204 204 255 0.5 0.5
60 132 -28 -1 0 0 204 204 204 255 0.5 0.5
60 122 -24 -1 0 0 204 204 204 255 0.5 0.5
60 110 -24 -1 0 0 204 204 204 255 0.5 0.5
60 100 -28 -1 0 0 204 204 204 255 0.5 0.5
60 91 -37 -1 0 0 204 204 204 255 0.5 0.5
-60 145 -47 0 0.992054 0.1258127 204 204 204 255 0.5 0.5
-80 145 -47 0 0.9678247 0.2516255 204 204 204 255 0.5 0.5
-80 145 -59 0 0.992054 -0.1258128 204 204 204 255 0.5 0.5
-60 145 -59 0 0.9678247 -0.2516255 204 204 204 255 0.5 0.5
-60 141 -37 0 0.8704702 0.4922211 204 204 204 255 0.5 0.5
-80 141 -37 0 0.7953176 0.6061929 204 204 204 255 0.5 0.5
-60 132 -28 0 0.6061929 0.7953176 204 204 204 255 0.5 0.5
-80 132 -28 0 0.4922211 0.8704702 204 204 204 255 0.5 0.5
-60 122 -24 0 0.2516255 0.9678247 204 204 204 255 0.5 0.5
-80 122 -24 0 0.1258127 0.992054 204 204 204 255 0.5 0.5
-60 110 -24 0 -0.1258127 0.992054 204 204 204 255 0.5 0.5
-80 110 -24 0 -0.2516255 0.9678247 204 204 204 255 0.5 0.5
-60 100 -28 0 -0.4922211 0.8704702 204 204 204 255 0.5 0.5
-80 100 -28 0 -0.6061929 0.7953176 204 204 204 255 0.5 0.5
-60 91 -37 0 -0.7953176 0.6061929 204 204 204 255 0.5 0.5
-80 91 -37 0 -0.8704702 0.4922211 204 204 204 255 0.5 0.5
-60 87 -47 0 -0.9678247 0.2516255 204 204 204 255 0.5 0.5
-80 87 -47 0 -0.992054 0.1258127 204 204 204 255 0.5 0.5
-60 87 -59 0 -0.992054 -0.1258128 204 204 204 255 0.5 0.5
-80 87 -59 0 -0.9678247 -0.2516255 204 204 204 255 0.5 0.5
-60 91 -69 0 -0.8704702 -0.4922211 204 204 204 255 0.5 0.5
-80 91 -69 0 -0.7953176 -0.606193 204 204 204 255 0.5 0.5
-60 100 -78 0 -0.6061929 -0.7953176 204 204 204 255 0.5 0.5
-80 100 -78 0 -0.4922211 -0.8704702 204 204 204 255 0.5 0.5
-60 110 -82 0 -0.2516255 -0.9678247 204 204 204 255 0.5 0.5
-80 110 -82 0 -0.1258127 -0.992054 204 204 204 255 0.5 0.5
-60 122 -82 0 0.1258127 -0.992054 204 204 204 255 0.5 0.5
-80 122 -82 0 0.2516255 -0.9678247 204 204 204 255 0.5 0.5
-60 132 -78 0 0.4922211 -0.8704702 204 204 204 255 0.5 0.5
-80 132 -78 0 0.6061929 -0.7953176 204 204 204 255 0.5 0.5
-60 141 -69 0 0.7953176 -0.606193 204 204 204 255 0.5 0.5
-80 141 -69 0 0.8704702 -0.4922211 204 204 204 255 0.5 0.5
-80 116 -53 -1 0 0 204 204 204 255 0.5 0.5
-80 145 -59 -1 0 0 204 204 204 255 0.5 0.5
-80 145 -47 -1 0 0 204 204 204 255 0.5 0.5
-80 141 -37 -1 0 0 204 204 204 255 0.5 0.5
-80 132 -28 -1 0 0 204 204 204 255 0.5 0.5
-80 122 -24 -1 0 0 204 204 204 255 0.5 0.5
-80 110 -24 -1 0 0 204 204 204 255 0.5 0.5
-80 100 -28 -1 0 0 204 204 204 255 0.5 0.5
-80 91 -37 -1 0 0 204 204 204 255 0.5 0.5
-80 87 -47 -1 0 0 204 204 204 255 0.5 0.5
-80 87 -59 -1 0 0 204 204 204 255 0.5 0.5
-80 91 -69 -1 0 0 204 204 204 255 0.5 0.5
-80 100 -78 -1 0 0 204 204 204 255 0.5 0.5
-80 110 -82 -1 0 0 204 204 204 255 0.5 0.5
-80 122 -82 -1 0 0 204 204 204 255 0.5 0.5
-80 132 -78 -1 0 0 204 204 204 255 0.5 0.5
-80 141 -69 -1 0 0 204 204 204 255 0.5 0.5
-60 116 -53 1 0 0 204 204 204 255 0.5 0.5
-60 145 -47 1 0 0 204 204 204 255 0.5 0.5
-60 145 -59 1 0 0 204 204 204 255 0.5 0.5
-60 141 -69 1 0 0 204 204 204 255 0.5 0.5
-60 132 -78 1 0 0 204 204 204 255 0.5 0.5
-60 122 -82 1 0 0 204 204 204 255 0.5 0.5
-60 110 -82 1 0 0 204 204 204 255 0.5 0.5
-60 100 -78 1 0 0 204 204 204 255 0.5 0.5
-60 91 -69 1 0 0 204 204 204 255 0.5 0.5
-60 87 -59 1 0 0 204 204 204 255 0.5 0.5
-60 87 -47 1 0 0 204 204 204 255 0.5 0.5
-60 91 -37 1 0 0 204 204 204 255 0.5 0.5
-60 100 -28 1 0 0 204 204 204 255 0.5 0.5
-60 110 -24 1 0 0 204 204 204 255 0.5 0.5
-60 122 -24 1 0 0 204 204 204 255 0.5 0.5
-60 132 -28 1 0 0 204 204 204 255 0.5 0.5
-60 141 -37 1 0 0 204 204 204 255 0.5 0.5
-85 -202 -31 -0.412849 0.3770198 -0.829103 204 204 204 255 0.5 0.5
-85 -202 -24 -0.6923729 0.6322851 0.347614 204 204 204 255 0.5 0.5
-83 -224 -31 -0.638725 -0.6994249 -0.3206795 204 204 204 255 0.5 0.5
-83 -224 -24 -0.4005723 -0.4386398 0.8044482 204 204 204 255 0.5 0.5
85 -202 -31 0.4194264 0.8041824 -0.421156 204 204 204 255 0.5 0.5
85 -202 -24 0.6777036 0.2786397 0.6804982 204 204 204 255 0.5 0.5
83 -224 -31 0.6509612 -0.3860011 -0.6536456 204 204 204 255 0.5 0.5
83 -224 -24 0.3948309 -0.8288117 0.396459 204 204 204 255 0.5 0.5
85 195 -42 0.412849 -0.3770198 -0.829103 204 204 204 255 0.5 0.5
85 195 -35 0.6923729 -0.6322851 0.347614 204 204 204 255 0.5 0.5
83 217 -42 0.638725 0.6994249 -0.3206795 204 204 204 255 0.5 0.5
83 217 -35 0.4005723 0.4386398 0.8044482 204 204 204 255 0.5 0.5
-85 195 -42 -0.4194264 -0.8041824 -0.421156 204 204 204 255 0.5 0.5
-85 195 -35 -0.6777036 -0.2786397 0.6804982 204 204 204 255 0.5 0.5
-83 217 -42 -0.6509612 0.3860011 -0.6536456 204 204 204 255 0.5 0.5
-83 217 -35 -0.3948309 0.8288117 0.396459 204 204 204 255 0.5 0.5
-70 -98 -43 0 0.8944272 -0.4472136 204 204 204 255 0.5 0.5
-70 -108 -63 0 0.3432786 -0.9392336 204 204 204 255 0.5 0.5
70 -108 -63 0 0.6865572 -0.7270758 204 204 204 255 0.5 0.5
70 -98 -43 0 0.8944272 -0.4472136 204 204 204 255 0.5 0.5
-70 -128 -63 0 -0.6865572 -0.7270758 204 204 204 255 0.5 0.5
70 -128 -63 0 -0.3432786 -0.9392336 204 204 204 255 0.5 0.5
-70 -138 -43 0 -0.8944272 -0.4472136 204 204 204 255 0.5 0.5
70 -138 -43 0 -0.8944272 -0.4472136 204 204 204 255 0.5 0.5
-70 136 -43 0 0.8944272 -0.4472136 204 204 204 255 0.5 0.5
-70 126 -63 0 0.3432786 -0.9392336 204 204 204 255 0.5 0.5
70 126 -63 0 0.6865572 -0.7270758 204 204 204 255 0.5 0.5
70 136 -43 0 0.8944272 -0.4472136 204 204 204 255 0.5 0.5
-70 106 -63 0 -0.6865572 -0.7270758 204 204 204 255 0.5 0.5
70 106 -63 0 -0.3432786 -0.9392336 204 204 204 255 0.5 0.5
-70 96 -43 0 -0.8944272 -0.4472136 204 204 204 255 0.5 0.5
70 96 -43 0 -0.8944272 -0.4472136 204 204 204 255 0.5 0.5
5.999999 -63 83.2 0.4870332 0.8333318 0.2614514 204 204 204 255 0.5 0.5
12 -69 83.2 0.9361139 0.2435165 0.2537527 204 204 204 255 0.5 0.5
6.599999 -72 106 0.7273253 0.4250786 0.5388007 204 204 204 255 0.5 0.5
3 -68.4 106 0.1487049 0.5716435 0.8069143 204 204 204 255 0.5 0.5
12 -81 83.2 0.8333318 -0.4870332 0.2614513 204 204 204 255 0.5 0.5
6.599999 -78 106 0.6849537 -0.1781809 0.706463 204 204 204 255 0.5 0.5
5.999999 -87 83.2 0.2435166 -0.9361139 0.2537529 204 204 204 255 0.5 0.5
3 -81.6 106 0.2965024 -0.5073265 0.8091392 204 204 204 255 0.5 0.5
-5.999999 -87 83.2 -0.4870332 -0.8333318 0.2614514 204 204 204 255 0.5 0.5
-3 -81.6 106 -0.1487049 -0.5716435 0.8069143 204 204 204 255 0.5 0.5
-12 -81 83.2 -0.9361139 -0.2435165 0.2537527 204 204 204 255 0.5 0.5
-6.599999 -78 106 -0.7273253 -0.4250786 0.5388007 204 204 204 255 0.5 0.5
-12 -69 83.2 -0.8333318 0.4870332 0.2614513 204 204 204 255 0.5 0.5
-6.599999 -72 106 -0.6849537 0.1781809 0.706463 204 204 204 255 0.5 0.5
-5.999999 -63 83.2 -0.2435166 0.9361139 0.2537529 204 204 204 255 0.5 0.5
-3 -68.4 106 -0.2965024 0.5073265 0.8091392 204 204 204 255 0.5 0.5
3 2 1 0 
3 3 2 0 
3 5 4 1 
3 2 5 1 
3 8 7 6 
3 9 8 6 
3 12 11 10 
3 13 12 10 
3 15 14 11 
3 12 15 11 
3 17 16 14 
3 15 17 14 
3 18 6 7 
3 21 20 19 
3 22 21 19 
3 25 24 23 
3 25 26 24 
3 28 27 26 
3 25 28 26 
3 31 30 29 
3 32 31 29 
3 35 34 33 
3 35 36 34 
3 38 37 36 
3 35 38 36 
3 41 40 39 
3 42 41 39 
3 43 12 13 
3 44 43 13 
3 45 15 12 
3 43 45 12 
3 46 17 15 
3 45 46 15 
3 48 8 47 
3 49 48 47 
3 50 7 8 
3 48 50 8 
3 51 18 7 
3 50 51 7 
3 54 53 52 
3 55 54 52 
3 57 56 53 
3 54 57 53 
3 59 58 56 
3 57 59 56 
3 60 21 22 
3 61 60 22 
3 63 62 21 
3 60 63 21 
3 64 32 62 
3 63 64 62 
3 65 31 32 
3 64 65 32 
3 67 66 31 
3 65 67 31 
3 68 42 66 
3 67 68 66 
3 69 41 42 
3 68 69 42 
3 70 48 49 
3 71 54 55 
3 72 71 55 
3 73 57 54 
3 71 73 54 
3 74 59 57 
3 73 74 57 
3 75 60 61 
3 76 75 61 
3 79 78 77 
3 80 79 77 
3 79 81 78 
3 81 82 78 
3 83 65 64 
3 84 83 64 
3 87 86 85 
3 88 87 85 
3 87 89 86 
3 89 90 86 
3 91 69 68 
3 92 91 68 
3 95 94 93 
3 96 95 93 
3 98 97 94 
3 95 98 94 
3 50 48 70 
3 99 50 70 
3 47 8 9 
3 101 46 100 
3 100 46 45 
3 102 100 45 
3 102 45 43 
3 102 43 103 
3 103 43 44 
3 53 104 52 
3 52 104 105 
3 56 106 53 
3 53 106 104 
3 58 107 56 
3 56 107 106 
3 99 51 50 
3 25 23 108 
3 108 23 109 
3 82 111 110 
3 82 110 78 
3 90 113 112 
3 90 112 86 
3 35 33 114 
3 114 33 115 
3 117 0 116 
3 118 117 116 
3 120 119 3 
3 121 120 3 
3 124 123 122 
3 125 124 122 
3 127 126 123 
3 124 127 123 
3 3 122 121 
3 0 125 122 
3 3 0 122 
3 0 117 125 
3 81 79 96 
3 89 96 93 
3 89 81 96 
3 90 89 93 
3 87 111 82 
3 87 88 111 
3 89 82 81 
3 89 87 82 
3 93 113 90 
3 93 128 113 
3 129 79 80 
3 129 96 79 
3 132 131 130 
3 130 133 132 
3 131 135 134 
3 134 130 131 
3 135 137 136 
3 136 134 135 
3 137 139 138 
3 138 136 137 
3 139 141 140 
3 140 138 139 
3 141 143 142 
3 142 140 141 
3 143 145 144 
3 144 142 143 
3 145 147 146 
3 146 144 145 
3 147 149 148 
3 148 146 147 
3 149 151 150 
3 150 148 149 
3 151 153 152 
3 152 150 151 
3 153 155 154 
3 154 152 153 
3 155 157 156 
3 156 154 155 
3 157 159 158 
3 158 156 157 
3 159 161 160 
3 160 158 159 
3 161 132 133 
3 133 160 161 
3 164 163 162 
3 165 164 162 
3 166 165 162 
3 167 166 162 
3 168 167 162 
3 169 168 162 
3 170 169 162 
3 171 170 162 
3 172 171 162 
3 173 172 162 
3 174 173 162 
3 175 174 162 
3 176 175 162 
3 177 176 162 
3 178 177 162 
3 163 178 162 
3 181 180 179 
3 182 181 179 
3 183 182 179 
3 184 183 179 
3 185 184 179 
3 186 185 179 
3 187 186 179 
3 188 187 179 
3 189 188 179 
3 190 189 179 
3 191 190 179 
3 192 191 179 
3 193 192 179 
3 194 193 179 
3 195 194 179 
3 180 195 179 
3 198 197 196 
3 196 199 198 
3 197 201 200 
3 200 196 197 
3 201 203 202 
3 202 200 201 
3 203 205 204 
3 204 202 203 
3 205 207 206 
3 206 204 205 
3 207 209 208 
3 208 206 207 
3 209 211 210 
3 210 208 209 
3 211 213 212 
3 212 210 211 
3 213 215 214 
3 214 212 213 
3 215 217 216 
3 216 214 215 
3 217 219 218 
3 218 216 217 
3 219 221 220 
3 220 218 219 
3 221 223 222 
3 222 220 221 
3 223 225 224 
3 224 222 223 
3 225 227 226 
3 226 224 225 
3 227 198 199 
3 199 226 227 
3 230 229 228 
3 231 230 228 
3 232 231 228 
3 233 232 228 
3 234 233 228 
3 235 234 228 
3 236 235 228 
3 237 236 228 
3 238 237 228 
3 239 238 228 
3 240 239 228 
3 241 240 228 
3 242 241 228 
3 243 242 228 
3 244 243 228 
3 229 244 228 
3 247 246 245 
3 248 247 245 
3 249 248 245 
3 250 249 245 
3 251 250 245 
3 252 251 245 
3 253 252 245 
3 254 253 245 
3 255 254 245 
3 256 255 245 
3 257 256 245 
3 258 257 245 
3 259 258 245 
3 260 259 245 
3 261 260 245 
3 246 261 245 
3 264 263 262 
3 262 265 264 
3 263 267 266 
3 266 262 263 
3 267 269 268 
3 268 266 267 
3 269 271 270 
3 270 268 269 
3 271 273 272 
3 272 270 271 
3 273 275 274 
3 274 272 273 
3 275 277 276 
3 276 274 275 
3 277 279 278 
3 278 276 277 
3 279 281 280 
3 280 278 279 
3 281 283 282 
3 282 280 281 
3 283 285 284 
3 284 282 283 
3 285 287 286 
3 286 284 285 
3 287 289 288 
3 288 286 287 
3 289 291 290 
3 290 288 289 
3 291 293 292 
3 292 290 291 
3 293 264 265 
3 265 292 293 
3 296 295 294 
3 297 296 294 
3 298 297 294 
3 299 298 294 
3 300 299 294 
3 301 300 294 
3 302 301 294 
3 303 302 294 
3 304 303 294 
3 305 304 294 
3 306 305 294 
3 307 306 294 
3 308 307 294 
3 309 308 294 
3 310 309 294 
3 295 310 294 
3 313 312 311 
3 314 313 311 
3 315 314 311 
3 316 315 311 
3 317 316 311 
3 318 317 311 
3 319 318 311 
3 320 319 311 
3 321 320 311 
3 322 321 311 
3 323 322 311 
3 324 323 311 
3 325 324 311 
3 326 325 311 
3 327 326 311 
3 312 327 311 
3 330 329 328 
3 328 331 330 
3 329 333 332 
3 332 328 329 
3 333 335 334 
3 334 332 333 
3 335 337 336 
3 336 334 335 
3 337 339 338 
3 338 336 337 
3 339 341 340 
3 340 338 339 
3 341 343 342 
3 342 340 341 
3 343 345 344 
3 344 342 343 
3 345 347 346 
3 346 344 345 
3 347 349 348 
3 348 346 347 
3 349 351 350 
3 350 348 349 
3 351 353 352 
3 352 350 351 
3 353 355 354 
3 354 352 353 
3 355 357 356 
3 356 354 355 
3 357 359 358 
3 358 356 357 
3 359 330 331 
3 331 358 359 
3 362 361 360 
3 363 362 360 
3 364 363 360 
3 365 364 360 
3 366 365 360 
3 367 366 360 
3 368 367 360 
3 369 368 360 
3 370 369 360 
3 371 370 360 
3 372 371 360 
3 373 372 360 
3 374 373 360 
3 375 374 360 
3 376 375 360 
3 361 376 360 
3 379 378 377 
3 380 379 377 
3 381 380 377 
3 382 381 377 
3 383 382 377 
3 384 383 377 
3 385 384 377 
3 386 385 377 
3 387 386 377 
3 388 387 377 
3 389 388 377 
3 390 389 377 
3 391 390 377 
3 392 391 377 
3 393 392 377 
3 378 393 377 
3 396 395 394 
3 396 397 395 
3 398 394 395 
3 399 398 395 
3 400 396 394 
3 398 400 394 
3 401 397 396 
3 400 401 396 
3 399 395 397 
3 401 399 397 
3 399 400 398 
3 399 401 400 
3 404 403 402 
3 404 405 403 
3 406 402 403 
3 407 406 403 
3 408 404 402 
3 406 408 402 
3 409 405 404 
3 408 409 404 
3 407 403 405 
3 409 407 405 
3 407 408 406 
3 407 409 408 
3 412 411 410 
3 413 412 410 
3 415 414 411 
3 412 415 411 
3 417 416 414 
3 415 417 414 
3 420 419 418 
3 421 420 418 
3 423 422 419 
3 420 423 419 
3 425 424 422 
3 423 425 422 
3 428 427 426 
3 429 428 426 
3 431 430 427 
3 428 431 427 
3 433 432 430 
3 431 433 430 
3 435 434 432 
3 433 435 432 
3 437 436 434 
3 435 437 434 
3 439 438 436 
3 437 439 436 
3 441 440 438 
3 439 441 438 
3 429 426 440 
3 441 429 440 
3 429 433 431 
3 428 429 431 
3 441 435 433 
3 429 441 433 
3 439 437 435 
3 441 439 435 
