ply
format ascii 1.0
comment VCGLIB generated
element vertex 378
property float x
property float y
property float z
property float nx
property float ny
property float nz
property uchar red
property uchar green
property uchar blue
property uchar alpha
property float texture_u
property float texture_v
element face 752
property list uchar int vertex_indices
end_header
0.142461 0.265543 0.038306 -0.7609693 -0.2605895 0.5941539 204 204 204 255 1 0
0.132088 0.122056 0.025936 -0.8760399 0.2706182 0.3991489 204 204 204 255 1 0.666667
0.141467 0.196033 0.023456 -0.932097 0.03681539 0.360333 204 204 204 255 1 0.333333
0.105109 0.268169 -0.011987 -0.3603126 -0.6530108 0.666147 204 204 204 255 0.666667 0
0.055756 0.060218 0.005582 -0.7493302 0.5189592 0.4113218 219 186 128 255 0.666667 1
-0.006851 0.218601 -0.096404 0.5004284 0.04637859 0.8645348 204 204 204 255 0 0.333333
-0.024643 0.138047 -0.06362 0.002231298 0.4370243 0.899447 204 204 204 255 0 0.666667
0.016668 0.117147 -0.058722 -0.009155347 0.5298302 0.8480543 204 204 204 255 0.333333 0.666667
0.111598 0.198956 -0.054048 -0.872066 0.02509955 0.4887443 204 204 204 255 0.666667 0.333333
0.0879 0.103676 -0.021143 -0.5949391 0.5443987 0.5913355 204 204 204 255 0.666667 0.666667
0.140901 0.111618 0.061079 -0.8683812 0.4542228 0.1989869 204 204 204 255 1 1
0.156758 0.199908 0.06578 -0.9711282 0.1170053 0.2078935 204 204 204 255 1 0.333333
0.129386 0.327059 0.048251 -0.6020539 -0.20051 0.7728692 204 204 204 255 1 0
0.102288 0.327059 0.034576 -0.03253506 -0.4567027 0.8890243 204 204 204 255 0.666667 0
0.14548 0.327059 0.06316 -0.807771 -0.2615099 0.5283167 204 204 204 255 1 0
0.119516 0.372186 0.052099 -0.5581177 -0.4554702 0.6935788 204 204 204 255 1 0
0.063755 0.25663 -0.046896 -0.3307222 -0.8555357 0.3983485 204 204 204 255 0.5 0
0.043474 0.058661 -0.000101 0.2572357 0.5190948 0.8150893 219 185 125 255 0.5 1
0.042639 0.102656 -0.043993 -0.1953536 0.5837871 0.7880543 204 204 204 255 0.5 0.666667
-0.066409 0.304957 -0.073088 -0.2340789 -0.1388749 0.9622478 204 204 204 255 0 0
-0.071253 0.143831 -0.070041 0.1610672 0.449797 0.8784873 204 204 204 255 0 1
-0.062196 0.24063 -0.080634 0.1663722 -0.06369228 0.9840039 204 204 204 255 0 0.333333
-0.067047 0.167644 -0.078814 0.0450091 0.2103771 0.9765837 204 204 204 255 0 0.666667
-0.094301 0.309567 -0.074791 0.1205973 0.07576162 0.9898063 204 204 204 255 0 0
-0.080666 0.167319 -0.075692 0.2825838 0.2610902 0.9230267 204 204 204 255 0 1
-0.09403 0.24063 -0.075291 0.1757144 -0.03564386 0.9837957 204 204 204 255 0 0.333333
-0.085092 0.186277 -0.077736 0.2017484 0.08367608 0.9758565 204 204 204 255 0 0.666667
-0.086853 0.370976 -0.065023 -0.7019287 -0.4927261 0.5143123 204 204 204 255 0 0
-0.103555 0.382864 -0.073282 -0.4739816 -0.5962085 0.6479791 204 204 204 255 0 0
-0.118901 0.371816 -0.077035 0.006004281 -0.1628513 0.9866323 162 162 162 255 0 0
-0.10275 0.336613 -0.078658 0.01632124 0.09377252 0.9954599 204 204 204 255 0 0
-0.083063 0.341514 -0.069752 -0.4014361 -0.1132572 0.9088575 204 204 204 255 0 0
-0.064255 0.334303 -0.060358 -0.7059227 -0.3320637 0.6256251 204 204 204 255 0 0
-0.09235 0.3665 -0.076791 -0.409944 -0.1944026 0.8911529 204 204 204 255 0 0
-0.076403 0.355604 -0.063656 -0.7387428 -0.4226618 0.5249916 204 204 204 255 0 0
0.109837 0.265537 0.098619 0.08257037 -0.2592829 -0.9622653 204 204 204 255 1 0
-0.061006 0.113135 -0.002857 0.6857266 0.6579503 -0.3112562 204 204 204 255 0 1
0.094003 0.12205 0.096152 -0.1572546 0.2757888 -0.9482676 204 204 204 255 1 0.666667
0.09688 0.196033 0.10584 -0.2095858 0.03692773 -0.9770927 204 204 204 255 1 0.333333
-0.042212 0.275261 0.047153 0.05088091 -0.8924636 -0.4482409 204 204 204 255 0.333333 0
0.053343 0.267898 0.095587 0.2530435 -0.6591143 -0.708193 204 204 204 255 0.666667 0
-0.084583 0.2186 0.046828 0.9973353 -0.008302747 -0.07248066 204 204 204 255 0 0.333333
-0.068611 0.138047 0.017398 0.7636946 0.4886031 -0.4219451 204 204 204 255 0 0.666667
-0.041312 0.117147 0.048116 0.7075636 0.5634411 -0.4264833 204 204 204 255 0.333333 0.666667
0.023667 0.198958 0.12164 -0.07575437 0.09688577 -0.9924084 204 204 204 255 0.666667 0.333333
0.029853 0.103434 0.086287 0.1263287 0.5528727 -0.823634 204 204 204 255 0.666667 0.666667
0.156657 0.265499 0.100803 -0.1351545 -0.1529101 -0.9789544 204 204 204 255 1 0
0.127958 0.110759 0.084342 -0.3634411 0.3990279 -0.8418357 204 204 204 255 1 1
0.110949 0.327059 0.082222 0.3198748 -0.2004464 -0.9260137 204 204 204 255 1 0
0.084716 0.327059 0.066954 0.6994781 -0.4383026 -0.5644654 204 204 204 255 0.666667 0
0.132221 0.327059 0.087591 0.0224885 -0.2567211 -0.9662238 204 204 204 255 1 0
0.09829 0.369534 0.066832 0.7712854 -0.4596027 -0.440323 204 204 204 255 0.666667 0
-0.004069 0.261406 0.079123 0.08285243 -0.7435274 -0.6635529 204 204 204 255 0.5 0
0.025027 0.058805 0.035112 0.8135261 0.464779 -0.349508 221 183 116 255 0.5 1
-0.015428 0.102702 0.06366 0.5420452 0.6065156 -0.5816578 204 204 204 255 0.5 0.666667
-0.097484 0.304957 -0.015827 0.6975824 -0.1517471 -0.7002512 204 204 204 255 0 0
-0.101522 0.24063 -0.008171 0.9157415 -0.05990092 -0.3972775 204 204 204 255 0 0.333333
-0.10019 0.167232 -0.010626 0.8670207 0.2258873 -0.4441283 204 204 204 255 0 0.666667
-0.106134 0.166909 -0.027327 0.9151313 0.3363427 -0.2222798 204 204 204 255 0 1
-0.10187 0.370976 -0.037352 0.05111242 -0.5415975 -0.8390826 204 204 204 255 0 0
-0.117897 0.382864 -0.046855 0.3343803 -0.585095 -0.7388191 204 204 204 255 0 0
-0.11976 0.336613 -0.047314 0.8111898 0.0766801 -0.5797338 204 204 204 255 0 0
-0.103769 0.341514 -0.031598 0.5942177 -0.06433935 -0.8017268 204 204 204 255 0 0
-0.085643 0.334303 -0.020947 0.1642694 -0.3217074 -0.9324805 204 204 204 255 0 0
-0.1294 0.368025 -0.056535 0.8225664 -0.1709933 -0.5423522 137 137 137 255 0 0
-0.114732 0.3665 -0.035547 0.5237666 -0.1944075 -0.8293819 204 204 204 255 0 0
-0.112932 0.399741 -0.060148 0.1588295 -0.9450769 -0.2856621 109 4 4 255 0 0
-0.112002 0.399741 -0.061861 -0.5576252 -0.8257816 0.0844917 109 4 4 255 0 0
-0.105734 0.182702 -0.071038 0.6229135 0.2398288 0.7446213 204 204 204 255 0 0.666667
-0.116837 0.182702 -0.050579 0.9626686 0.2581101 0.08153753 204 204 204 255 0 0.666667
-0.107002 0.156709 -0.046983 0.8832122 0.4620371 0.08036142 204 204 204 255 0 1
-0.09725 0.156709 -0.064953 0.6036873 0.4435187 0.6624598 204 204 204 255 0 1
-0.133209 0.329288 -0.073666 0.5191374 -0.05736141 0.8527638 109 4 4 255 0 0
-0.134387 0.329288 -0.071496 0.9927018 0.1174084 -0.02753836 109 4 4 255 0 0
-0.130354 0.315772 -0.069348 0.646804 0.7626275 -0.00662251 109 4 4 255 0 0
-0.12921 0.315772 -0.071455 0.5357788 0.5457683 0.6442655 109 4 4 255 0 0
-0.019019 0.076697 -0.001516 0.4890379 0.8710368 -0.04622544 204 204 204 255 0.333333 1
-0.120912 0.312373 -0.060886 0.954421 0.2468291 -0.1677972 163 118 118 255 0 0
-0.11697 0.312373 -0.06815 0.2728578 0.3468612 0.8973495 161 115 115 255 0 0
-0.053033 0.334923 -0.04179 -0.8551675 -0.5168881 0.03892569 204 204 204 255 0 0
-0.076926 0.358643 -0.031795 -0.389372 -0.5987258 -0.6999407 204 204 204 255 0 0
-0.068607 0.358643 -0.047124 -0.8047771 -0.5926969 0.03231322 204 204 204 255 0 0
-0.088066 0.129377 -0.038425 0.7403955 0.6681877 0.07307388 204 204 204 255 0 1
-0.131996 0.367882 -0.060318 0.8151684 -0.1893187 -0.5474111 162 162 162 255 0 0
-0.122531 0.367882 -0.077759 -0.009854637 -0.19376 0.9809995 162 162 162 255 0 0
0.172287 0.266691 0.088154 -0.9877192 -0.07296808 -0.1381538 204 204 204 255 1 0
0.16778 0.266691 0.09646 -0.6651453 -0.1042237 -0.7394046 204 204 204 255 1 0
0.146928 0.330505 0.074307 -0.9006421 -0.4256181 -0.08771017 204 204 204 255 1 0
0.056405 0.288632 0.05198 0.6507127 -0.7577737 0.04849881 204 204 204 255 0.666667 0
0.007714 0.281592 0.030946 -0.04090921 -0.9899585 -0.1353092 204 204 204 255 0.5 0
0.030125 0.273177 -0.01035 -0.216425 -0.9666849 0.1366769 204 204 204 255 0.5 0
0.08173 0.330505 0.051965 0.8813784 -0.4440726 0.1611575 204 204 204 255 0.666667 0
0.050585 0.05832 0.017637 -0.4846253 0.8289862 -0.2791422 217 188 138 255 0.666667 1
0.100859 0.372155 0.05945 0.6805842 -0.7148501 0.1606069 204 204 204 255 0.666667 0
0.029545 0.05661 0.02503 0.5169498 0.754309 0.4046985 219 185 125 255 0.5 1
0.127274 0.37416 0.064679 -0.763 -0.6450766 0.04131846 204 204 204 255 1 0
0.150478 0.137903 0.074764 -0.9378873 0.2643485 -0.2246942 204 204 204 255 1 0.666667
0.144849 0.137903 0.085138 -0.7006843 0.2565594 -0.6657467 204 204 204 255 1 0.666667
0.152068 0.198699 0.089096 -0.7020144 0.1853008 -0.6876332 204 204 204 255 1 0.333333
0.15755 0.198699 0.078994 -0.961143 0.1861025 -0.2038875 204 204 204 255 1 0.333333
0.134262 0.104815 0.077599 -0.5887079 0.5105061 -0.6267428 204 204 204 255 1 1
-0.154274 0.345727 -0.089419 0.1847052 -0.2918896 0.9384479 232 170 63 255 0 0
-0.159075 0.345727 -0.080572 0.9059079 0.2886034 -0.3099015 225 178 98 255 0 0
-0.157495 0.344068 -0.07979 0.3383736 0.91978 -0.1987664 230 172 72 255 0 0
-0.152756 0.344068 -0.088521 0.2287797 0.8306148 0.5076799 221 183 116 255 0 0
-0.134361 0.389995 -0.071789 0.9272139 -0.3554271 -0.1180929 109 4 4 255 0 0
-0.133441 0.389995 -0.073485 0.239802 -0.6426353 0.7276778 109 4 4 255 0 0
0.143766 0.232766 0.027765 -0.8576089 -0.1252014 0.4988304 204 204 204 255 1 0.166667
-0.008783 0.258944 -0.086686 0.4742762 -0.2047342 0.8562394 204 204 204 255 0 0.166667
0.106341 0.236458 -0.041879 -0.5706859 -0.6920951 0.4419526 204 204 204 255 0.666667 0.166667
0.075081 0.226917 -0.069684 -0.4556763 -0.8223577 0.3407154 204 204 204 255 0.5 0.166667
-0.064304 0.275116 -0.078368 -0.01809883 -0.1984193 0.9799501 204 204 204 255 0 0.166667
0.101785 0.232758 0.105346 -0.05020463 -0.1211369 -0.9913654 204 204 204 255 1 0.166667
-0.077439 0.258944 0.039822 0.973182 -0.2070515 -0.100232 204 204 204 255 0 0.166667
0.030433 0.235924 0.111414 -0.01105003 -0.4983379 -0.8669125 204 204 204 255 0.666667 0.166667
0.149267 0.232704 0.099983 -0.2961587 0.1259141 -0.9468029 204 204 204 255 1 0.166667
-0.016817 0.226871 0.100827 0.1032923 -0.9772413 -0.1852839 204 204 204 255 0.5 0.166667
-0.100722 0.275116 -0.011262 0.8118511 -0.1984515 -0.5491036 204 204 204 255 0 0.166667
-0.114777 0.276607 -0.070782 0.6047047 -0.005590005 0.7964302 204 204 204 255 0 0.166667
-0.121873 0.276607 -0.057705 0.9961691 -0.01893529 0.08537396 204 204 204 255 0 0.166667
0.166403 0.232695 0.083819 -0.9579074 0.2250411 -0.1782412 204 204 204 255 1 0.166667
0.137158 0.156394 0.023776 -0.9223267 0.1283468 0.364473 204 204 204 255 1 0.5
0.026054 0.158284 -0.076017 -0.01448649 0.620433 0.7841257 204 204 204 255 0.333333 0.5
-0.018375 0.167379 -0.07517 0.1596206 0.4178247 0.8943958 204 204 204 255 0 0.5
0.101952 0.154873 -0.038798 -0.7084692 0.4081156 0.5757717 204 204 204 255 0.666667 0.5
0.154641 0.167536 0.062004 -0.9700918 0.1170252 0.2126666 204 204 204 255 1 0.5
0.054304 0.151325 -0.06789 -0.2299344 0.6407534 0.7325062 204 204 204 255 0.5 0.5
-0.062952 0.189408 -0.079242 0.08410714 0.08075517 0.993179 204 204 204 255 0 0.5
0.094799 0.156396 0.102045 -0.2117352 0.1266936 -0.9690805 204 204 204 255 1 0.5
-0.051179 0.158284 0.066298 0.6690758 0.6024712 -0.435162 204 204 204 255 0.333333 0.5
-0.075088 0.167379 0.029333 0.9009278 0.3223742 -0.2905236 204 204 204 255 0 0.5
0.028808 0.155033 0.108963 0.09082753 0.4372002 -0.8947662 204 204 204 255 0.666667 0.5
-0.028225 0.151333 0.084823 0.5067018 0.6211581 -0.5978428 204 204 204 255 0.5 0.5
-0.100397 0.189408 -0.010244 0.8929347 0.07836808 -0.4433127 204 204 204 255 0 0.5
0.155332 0.17347 0.077099 -0.9656324 0.1195125 -0.2308046 204 204 204 255 1 0.5
-0.079819 0.256382 0.04874 0.9218507 -0.306269 -0.2374671 204 204 204 255 0 0.166667
-0.070365 0.288266 0.014735 0.7319723 -0.6152598 -0.2926978 204 204 204 255 0 0
0.012256 0.236023 0.114166 0.12455 -0.9024097 -0.4124854 204 204 204 255 0.666667 0.166667
0.006022 0.201864 0.123931 0.07543597 -0.08585713 -0.9934475 204 204 204 255 0.666667 0.333333
-0.047659 0.269901 0.055433 0.2491959 -0.7810997 -0.5725248 204 204 204 255 0.333333 0
-0.058525 0.239228 0.079075 0.4930226 -0.4946506 -0.7157161 204 204 204 255 0.333333 0.166667
-0.063769 0.206211 0.087512 0.7261028 0.03923851 -0.6864657 204 204 204 255 0.333333 0.333333
-0.077673 0.172788 0.039164 0.835754 0.5116562 -0.1993071 204 204 204 255 0 0.5
-0.086341 0.219551 0.055136 0.9813021 0.08918726 -0.1705634 204 204 204 255 0 0.333333
-0.042663 0.199033 0.103771 0.5247704 0.03486773 -0.8505294 204 204 204 255 0.5 0.333333
-0.012836 0.257176 0.08462 -0.0148382 -0.6496677 -0.7600735 204 204 204 255 0.5 0
-0.037936 0.231257 0.095374 0.2031835 -0.5288602 -0.8240288 204 204 204 255 0.5 0.166667
-0.055846 0.164484 0.072911 0.6955953 0.567851 -0.440105 204 204 204 255 0.333333 0.5
0.011836 0.159767 0.110849 0.1003785 0.3997826 -0.9110972 204 204 204 255 0.666667 0.5
-0.03489 0.158139 0.089823 0.5034055 0.5792722 -0.6411136 204 204 204 255 0.5 0.5
-0.003257 0.255526 -0.093671 0.3599572 -0.2445963 0.9003352 204 204 204 255 0 0.166667
-0.026404 0.287054 -0.067423 -0.1425768 -0.7727255 0.6185201 204 204 204 255 0 0
0.097054 0.236125 -0.05962 -0.6129256 -0.6072317 0.5055609 204 204 204 255 0.666667 0.166667
0.102227 0.201665 -0.07113 -0.7191076 0.03958094 0.6937705 204 204 204 255 0.666667 0.333333
0.019582 0.266316 -0.070529 -0.3671914 -0.7933421 0.4855705 204 204 204 255 0.333333 0
0.033374 0.23856 -0.092363 -0.3388097 -0.5088161 0.7914002 204 204 204 255 0.333333 0.166667
0.0375 0.205907 -0.101179 -0.1595222 0.06343573 0.9851541 204 204 204 255 0.333333 0.333333
-0.011918 0.172851 -0.083273 0.4792851 0.3668847 0.7972963 204 204 204 255 0 0.5
-0.001513 0.2191 -0.102445 0.4339837 0.0668254 0.8984389 204 204 204 255 0 0.333333
0.062213 0.198808 -0.092781 -0.384852 0.05682361 0.9212275 204 204 204 255 0.5 0.333333
0.062238 0.253437 -0.057743 -0.5662954 -0.6811095 0.4641115 204 204 204 255 0.5 0
0.057822 0.230701 -0.08437 -0.3574854 -0.6816725 0.6383783 204 204 204 255 0.5 0.166667
0.028197 0.164639 -0.084037 0.07010189 0.5896319 0.8046242 204 204 204 255 0.333333 0.5
0.092506 0.159737 -0.054817 -0.6160847 0.4889258 0.6175688 204 204 204 255 0.666667 0.5
0.054024 0.158356 -0.077289 -0.1628391 0.614649 0.7718096 204 204 204 255 0.5 0.5
0.023692 0.005009 0.035181 0.1602262 0.6653149 -0.7291665 239 162 28 255 0.5 1
0.039456 0.005009 0.034694 -0.1107077 0.9292654 0.352434 239 162 28 255 0.666667 1
0.029407 0.005009 0.024651 -0.5252617 0.4406146 0.7279828 239 162 28 255 0.5 1
0.05355 0.005009 0.008723 -0.1193384 0.8939198 0.4320484 239 162 28 255 0.666667 1
0.043097 0.005009 -0.000576 -0.5321827 0.2284023 0.8152386 239 162 28 255 0.5 1
0.050954 0.005009 0.013506 0.3684959 0.5332195 -0.7615036 239 162 28 255 0.666667 1
0.037437 0.005009 0.009853 0.1688799 0.6641266 -0.7282963 239 162 28 255 0.5 1
0.053975 0.013861 0.008333 -0.8912026 -0.06770407 0.4485244 239 162 28 255 0.666667 1
0.050973 0.013861 0.014134 -0.1798691 -0.2854069 -0.9413767 239 162 28 255 0.666667 1
0.04391 0.013861 0.001213 -0.0890693 -0.4063044 0.9093863 239 162 28 255 0.5 1
0.039346 0.013861 0.009536 0.6289166 -0.1481964 -0.763218 239 162 28 255 0.5 1
0.030207 0.014387 0.026496 -0.1397299 -0.4044013 0.9038447 239 162 28 255 0.5 1
0.040092 0.014387 0.034393 -0.907192 -0.06535042 0.4156105 239 162 28 255 0.666667 1
0.037103 0.014387 0.0399 -0.1591328 -0.2912786 -0.9433099 239 162 28 255 0.666667 1
0.025815 0.014387 0.034916 0.6223505 -0.1573152 -0.7667671 239 162 28 255 0.5 1
-0.008178 0.076697 -0.021492 0.2459517 0.8797962 0.4067757 204 204 204 255 0.333333 1
0.007836 0.093333 -0.038929 0.0209945 0.6323783 0.7743752 204 204 204 255 0.333333 1
-0.07819 0.129377 -0.056624 0.4583668 0.663138 0.591733 204 204 204 255 0 1
-0.117943 0.368025 -0.077646 -0.008810082 -0.1750149 0.9845264 137 137 137 255 0 0
-0.033115 0.301716 -0.037545 -0.6814592 -0.7290353 0.06419458 204 204 204 255 0 0
-0.034419 0.293862 -0.057616 -0.2939411 -0.605756 0.7393634 204 204 204 255 0 0
0.115649 0.077321 0.055949 -0.6001102 0.799502 0.02577416 204 204 204 255 1 1
0.122415 0.093155 0.03689 -0.7395756 0.5516953 0.385565 204 204 204 255 1 1
0.104786 0.372155 0.052214 0.4798325 -0.7026766 0.5253631 204 204 204 255 0.666667 0
0.109583 0.369534 0.046024 0.03143954 -0.5722243 0.8194944 204 204 204 255 0.666667 0
0.037834 0.056697 0.009798 0.7087232 0.7019122 -0.07092749 221 183 116 255 0.5 1
-0.105798 0.391062 -0.062918 -0.4425141 -0.7975622 0.4099706 168 129 129 255 0 0
-0.034552 0.114006 -0.051603 0.04529992 0.5626189 0.8254744 204 204 204 255 0 1
-0.040108 0.096746 -0.037427 0.3122105 0.7747884 0.5497522 204 204 204 255 0 1
-0.115499 0.240911 -0.070861 0.607123 -0.01144639 0.7945254 204 204 204 255 0 0.333333
-0.126659 0.344867 -0.073327 0.02740918 0.4615697 0.8866804 197 133 66 255 0 0
0.016513 0.270893 -0.061056 -0.3602888 -0.909198 0.2086888 204 204 204 255 0.333333 0
0.000118 0.281227 -0.024824 -0.3846573 -0.9195683 0.08020615 204 204 204 255 0.333333 0
0.169874 0.265499 0.076448 -0.910476 -0.08770088 0.4041559 204 204 204 255 1 0
-0.122576 0.371465 -0.077035 0.005844701 -0.180745 0.9835126 137 137 137 255 0 0
0.074296 0.286018 0.019012 0.4624354 -0.7380919 0.4912982 204 204 204 255 0.666667 0
0.088085 0.330505 0.040254 0.5653961 -0.4888995 0.6643075 204 204 204 255 0.666667 0
-0.085006 0.377088 -0.054058 -0.6810876 -0.7298948 0.05808057 204 204 204 255 0 0
0.120642 0.37772 0.061085 -0.2891067 -0.9340542 0.2096667 204 204 204 255 1 0
0.12584 0.368768 0.055515 -0.7730107 -0.3821461 0.5063782 204 204 204 255 1 0
0.148559 0.132585 0.061275 -0.9362722 0.2925147 0.1944981 204 204 204 255 1 0.666667
0.138292 0.104815 0.070172 -0.8335229 0.5266609 -0.1669368 204 204 204 255 1 1
0.165208 0.232704 0.07061 -0.9576721 0.1435186 0.2495329 204 204 204 255 1 0.166667
-0.093583 0.275116 -0.075906 0.1421087 -0.04260778 0.9889336 204 204 204 255 0 0.166667
-0.090579 0.216694 -0.078178 0.1771841 -0.01099183 0.9841164 204 204 204 255 0 0.5
-0.113193 0.216099 -0.071511 0.627054 0.08703766 0.774098 204 204 204 255 0 0.5
0.039324 0.005009 0.006377 -0.08347984 0.9866213 0.1400343 239 162 28 255 0.5 1
0.04121 0.005009 0.002901 -0.117923 0.9798875 0.16098 239 162 28 255 0.5 1
0.039339 0.013861 0.006385 0.7938093 -0.6054684 0.05722698 239 162 28 255 0.5 1
0.041241 0.013861 0.002917 0.6335276 -0.7392588 0.2283401 239 162 28 255 0.5 1
-0.110437 0.391062 -0.054371 0.0503326 -0.7461865 -0.6638317 161 115 115 255 0 0
-0.110767 0.186183 -0.030098 0.9281666 0.1445707 -0.3429374 204 204 204 255 0 0.666667
-0.049573 0.096746 -0.019985 0.5961591 0.8028266 0.007986167 204 204 204 255 0 1
-0.122383 0.240911 -0.058176 0.9975125 0.02171348 0.06706275 204 204 204 255 0 0.333333
-0.11439 0.24063 -0.037774 0.9237472 -0.03221986 -0.3816449 204 204 204 255 0 0.333333
-0.130533 0.344867 -0.066188 0.8934304 0.1835277 -0.4099998 184 123 78 255 0 0
-0.063967 0.334923 -0.021644 -0.4551148 -0.5531339 -0.6977918 204 204 204 255 0 0
-0.020775 0.286712 0.013675 -0.2040161 -0.9477948 -0.2450765 204 204 204 255 0.333333 0
-0.131414 0.371465 -0.06075 0.8247386 -0.1852421 -0.5343143 137 137 137 255 0 0
-0.12941 0.371816 -0.057672 0.8323346 -0.167046 -0.5285024 162 162 162 255 0 0
-0.091677 0.377088 -0.041766 -0.2979049 -0.7323261 -0.6123325 204 204 204 255 0 0
0.042608 0.058233 0.032292 -0.5694622 0.8202577 0.05376107 219 186 128 255 0.666667 1
0.036849 0.06198 0.042904 -0.1712197 0.622566 -0.7636068 217 188 138 255 0.666667 1
0.116938 0.37772 0.06791 0.07631314 -0.9266167 -0.3681819 204 204 204 255 1 0
0.108798 0.372186 0.071849 0.3336111 -0.5133047 -0.7907098 204 204 204 255 1 0
0.123566 0.37416 0.071512 -0.3673395 -0.6767281 -0.6380445 204 204 204 255 1 0
0.115108 0.368768 0.07529 0.1037503 -0.4547662 -0.8845471 204 204 204 255 1 0
0.132548 0.132585 0.090778 -0.3494357 0.2572129 -0.900964 204 204 204 255 1 0.666667
-0.026657 0.092017 0.02463 0.6242995 0.7325801 -0.2712501 204 204 204 255 0.333333 1
-0.114119 0.309567 -0.038273 0.8999222 0.01933264 -0.4356219 204 204 204 255 0 0
-0.095029 0.355604 -0.029336 0.02694668 -0.4413039 -0.8969531 204 204 204 255 0 0
-0.094171 0.142088 -0.021716 0.800392 0.5289626 -0.2820838 204 204 204 255 0 1
-0.067084 0.293862 0.002574 0.3433628 -0.6210493 -0.7045564 204 204 204 255 0 0
-0.049552 0.301961 -0.007257 -0.3940764 -0.7713373 -0.4997427 204 204 204 255 0 0
0.142349 0.330505 0.082744 -0.5796818 -0.4223925 -0.6968167 204 204 204 255 1 0
0.097768 0.093165 0.082325 -0.1282155 0.5205974 -0.8441204 204 204 204 255 1 1
0.109931 0.077321 0.066487 -0.3160268 0.7847255 -0.5332288 204 204 204 255 1 1
0.140564 0.199908 0.09562 -0.3427555 0.1420664 -0.9286204 204 204 204 255 1 0.333333
-0.114614 0.275116 -0.037153 0.901302 -0.03413567 -0.4318444 204 204 204 255 0 0.166667
0.160989 0.232695 0.093797 -0.6841376 0.2320348 -0.691459 204 204 204 255 1 0.166667
0.149292 0.17347 0.088227 -0.7189972 0.1334055 -0.6820894 204 204 204 255 1 0.5
0.136274 0.167536 0.095849 -0.3567636 0.1133809 -0.9272888 204 204 204 255 1 0.5
-0.121632 0.216099 -0.055961 0.9924189 0.0881421 0.08564801 204 204 204 255 0 0.5
-0.114843 0.216694 -0.033468 0.9266468 0.02189969 -0.3752947 204 204 204 255 0 0.5
0.036939 0.005009 0.039332 0.3853777 0.5146385 -0.7659186 239 162 28 255 0.666667 1
0.025597 0.005009 0.031671 -0.06237175 0.9870396 0.1478604 239 162 28 255 0.5 1
0.027502 0.005009 0.028161 -0.09416679 0.9859496 0.1379714 239 162 28 255 0.5 1
0.025747 0.014387 0.031667 0.7997416 -0.5993558 0.03443816 239 162 28 255 0.5 1
0.027577 0.014387 0.028159 0.6440026 -0.7292298 0.2312675 239 162 28 255 0.5 1
0.001953 -0.000717 -0.02473 0.9149119 0.3185087 -0.2479689 239 162 28 255 0.5 1
0.00384 -0.000717 -0.028206 0.01388696 0.8634285 0.5042801 239 162 28 255 0.5 1
0.003886 0.003314 -0.028181 0.2703653 -0.3530751 0.8956789 239 162 28 255 0.5 1
0.001984 0.003314 -0.024713 0.6886322 -0.7248173 -0.02062819 239 162 28 255 0.5 1
-0.002783 -0.000735 -0.016526 0.8915778 0.3374341 -0.3020384 239 162 28 255 0.5 1
-0.000896 -0.000735 -0.020003 0.0563782 0.8507321 0.5225671 239 162 28 255 0.5 1
-0.002767 0.003296 -0.016518 0.6766021 -0.7338948 -0.06006751 239 162 28 255 0.5 1
-0.000866 0.003296 -0.019986 0.3213894 -0.3099937 0.8947697 239 162 28 255 0.5 1
-0.00655 0.003277 -0.008303 0.6547732 -0.7489534 -0.1016901 239 162 28 255 0.5 1
-0.00655 -0.000754 -0.008303 0.8736233 0.33235 -0.3554235 239 162 28 255 0.5 1
-0.004664 -0.000754 -0.011779 0.09495939 0.8402075 0.5338858 239 162 28 255 0.5 1
-0.004648 0.003277 -0.011771 0.3660832 -0.2934326 0.8831084 239 162 28 255 0.5 1
-0.010835 -0.000741 -0.000406 0.9197715 0.310782 -0.2396559 239 162 28 255 0.5 1
-0.008931 -0.000741 -0.003916 0.003190777 0.8680451 0.4964751 239 162 28 255 0.5 1
-0.008931 0.003529 -0.003916 0.2671633 -0.3562291 0.8953907 239 162 28 255 0.5 1
-0.010761 0.003529 -0.000408 0.6958522 -0.7178978 -0.02031273 239 162 28 255 0.5 1
-0.016431 -0.000665 0.009054 0.8964921 0.3170615 -0.3094736 239 162 28 255 0.5 1
-0.014526 -0.000665 0.005544 0.05803885 0.850524 0.522724 239 162 28 255 0.5 1
-0.016281 0.003605 0.00905 0.6733445 -0.7362521 -0.06738037 239 162 28 255 0.5 1
-0.014451 0.003605 0.005542 0.3285733 -0.3157508 0.8901355 239 162 28 255 0.5 1
-0.021924 -0.000602 0.019908 0.8646435 0.3130822 -0.392901 239 162 28 255 0.5 1
-0.021699 0.003668 0.019902 0.6317706 -0.7659217 -0.1192888 239 162 28 255 0.5 1
-0.020019 -0.000602 0.016398 0.1231851 0.830967 0.542512 239 162 28 255 0.5 1
-0.019869 0.003668 0.016394 0.3967606 -0.3008941 0.8672045 239 162 28 255 0.5 1
0.070214 0.002546 0.016107 -0.7880012 -0.6154771 -0.01556031 239 162 28 255 0.666667 1
0.070355 0.000456 0.016183 -0.86373 0.3483073 0.3642151 239 162 28 255 0.666667 1
0.066461 0.000456 0.023358 0.03640908 0.8711436 -0.4896767 239 162 28 255 0.666667 1
0.066461 0.002546 0.023358 -0.361393 -0.2696142 -0.8925824 239 162 28 255 0.666667 1
0.056223 0.000497 0.04228 -0.8598574 0.3707053 0.3510313 239 162 28 255 0.666667 1
0.056224 0.002712 0.042278 -0.8048912 -0.5923963 -0.03488408 239 162 28 255 0.666667 1
0.052488 0.002712 0.049162 -0.3609098 -0.2576613 -0.8963007 239 162 28 255 0.666667 1
0.052448 0.000497 0.049236 0.03214885 0.8661659 -0.4987214 239 162 28 255 0.666667 1
0.080575 0.262592 -0.033181 -0.165514 -0.8261909 0.5385292 204 204 204 255 0.583333 0
0.05027 0.05944 0.001357 -0.3621376 0.3921279 0.8456312 221 183 116 255 0.583333 1
0.06911 0.096398 -0.029944 -0.412598 0.5904482 0.6936382 204 204 204 255 0.583333 0.666667
0.019841 0.265759 0.086223 0.2210231 -0.8027973 -0.5537737 204 204 204 255 0.583333 0
0.011151 0.096308 0.077634 0.301418 0.6053493 -0.7366813 204 204 204 255 0.583333 0.666667
0.035328 0.279219 0.044998 0.1352364 -0.9887467 -0.06396148 204 204 204 255 0.583333 0
0.001858 0.231677 0.106503 0.2578302 -0.9384955 -0.2296731 204 204 204 255 0.583333 0.166667
0.088013 0.232014 -0.060715 -0.04048218 -0.9532647 0.2994123 204 204 204 255 0.583333 0.166667
0.003423 0.150924 0.101726 0.2807813 0.5660508 -0.7750797 204 204 204 255 0.583333 0.5
0.083504 0.150823 -0.054021 -0.4965513 0.5645226 0.6593565 204 204 204 255 0.583333 0.5
-0.01271 0.198764 0.118451 0.3558044 0.01952529 -0.9343565 204 204 204 255 0.583333 0.333333
-0.007425 0.231489 0.109616 0.2523771 -0.9042761 -0.3443699 204 204 204 255 0.583333 0.166667
-0.005996 0.157765 0.105255 0.2901917 0.5330713 -0.7947476 204 204 204 255 0.583333 0.5
0.088818 0.198542 -0.079877 -0.5209957 0.04990383 0.8520993 204 204 204 255 0.583333 0.333333
0.08414 0.231211 -0.070221 -0.1541064 -0.8445675 0.5127934 204 204 204 255 0.583333 0.166667
0.080353 0.157903 -0.0647 -0.4276714 0.5701414 0.7014529 204 204 204 255 0.583333 0.5
0.050346 0.005009 0.006466 -0.6961094 -0.1537216 0.7012857 239 162 28 255 0.583333 1
0.050059 0.013861 0.002691 -0.5945146 0.07632229 0.8004545 239 162 28 255 0.583333 1
0.030349 0.014387 0.039437 0.4592607 0.1282189 -0.8789992 239 162 28 255 0.583333 1
0.030327 0.060393 0.040288 0.3758861 0.4295366 -0.8211017 221 183 116 255 0.583333 1
0.056956 0.273152 0.005146 0.1481598 -0.944105 0.2944731 204 204 204 255 0.583333 0
0.033368 0.005009 0.03775 0.4567666 -0.1632165 -0.8744854 239 162 28 255 0.583333 1
0.03637 0.005009 0.032219 -0.5590957 0.6534382 0.510324 239 162 28 255 0.583333 1
0.047309 0.005009 0.012063 0.4234011 -0.1389218 -0.8952275 239 162 28 255 0.583333 1
0.044078 0.013861 0.013936 0.4258095 0.1495819 -0.8923629 239 162 28 255 0.583333 1
0.036208 0.014387 0.028438 -0.6352451 0.07423912 0.7687342 239 162 28 255 0.583333 1
0.043513 0.057508 0.015078 0.1751093 0.7304327 -0.6601552 221 183 116 255 0.583333 1
0.036749 0.057422 0.027354 -0.3648583 0.7188574 0.5917115 221 183 116 255 0.583333 1
0.002058 0.00989 0.027409 0.3501413 -0.7022215 -0.6199082 239 162 28 255 0.5 1
0.002939 0.00989 0.02403 -0.07517459 -0.6848712 0.724776 239 162 28 255 0.5 1
0.002789 0.003066 0.024035 -0.2924591 0.7126615 0.6376373 239 162 28 255 0.5 1
0.000884 0.003066 0.027545 0.1515612 0.6628695 -0.7332349 239 162 28 255 0.5 1
0.006488 0.003035 0.016852 -0.4005032 0.705357 0.5848665 239 162 28 255 0.5 1
0.004583 0.003035 0.020362 0.2567433 0.6972464 -0.6692761 239 162 28 255 0.5 1
0.006563 0.009858 0.01685 -0.1915355 -0.6869959 0.7009642 239 162 28 255 0.5 1
0.004733 0.009858 0.020358 0.464091 -0.6950526 -0.5491098 239 162 28 255 0.5 1
0.008333 0.002996 0.013877 0.3452862 0.7052317 -0.6192139 239 162 28 255 0.5 1
0.008408 0.00982 0.013875 0.5338834 -0.7059432 -0.4654169 239 162 28 255 0.5 1
0.010638 0.00982 0.01129 -0.2792872 -0.7198572 0.6354559 239 162 28 255 0.5 1
0.010238 0.002996 0.010367 -0.4969698 0.679723 0.539442 239 162 28 255 0.5 1
0.016398 0.009432 0.000616 0.3904991 -0.6985652 -0.5995976 239 162 28 255 0.5 1
0.017345 0.009432 -0.002693 -0.1212465 -0.6910889 0.7125275 239 162 28 255 0.5 1
0.015444 0.00299 0.000775 0.1976132 0.6620686 -0.7229207 239 162 28 255 0.5 1
0.01733 0.00299 -0.002701 -0.3394598 0.7066777 0.6207848 239 162 28 255 0.5 1
0.020188 0.009441 -0.008534 -0.1977074 -0.6883371 0.6979282 239 162 28 255 0.5 1
0.020157 0.003 -0.008551 -0.404487 0.7027891 0.585216 239 162 28 255 0.5 1
0.018286 0.009441 -0.005066 0.4644486 -0.6923372 -0.552229 239 162 28 255 0.5 1
0.01827 0.003 -0.005075 0.2568443 0.7009038 -0.6654058 239 162 28 255 0.5 1
0.021582 0.003009 -0.010915 0.3284143 0.706014 -0.6274459 239 162 28 255 0.5 1
0.021612 0.00945 -0.010898 0.5173468 -0.7064092 -0.4830511 239 162 28 255 0.5 1
0.023468 0.003009 -0.014391 -0.4814343 0.680307 0.5526331 239 162 28 255 0.5 1
0.023898 0.00945 -0.013484 -0.267316 -0.719147 0.6413813 239 162 28 255 0.5 1
0.119425 0.266679 0.008538 -0.7629387 -0.3538727 0.5410165 204 204 204 255 0.833333 0
0.112406 0.11866 -0.004837 -0.7281093 0.4396905 0.5258605 204 204 204 255 0.833333 0.666667
0.127541 0.195961 -0.022196 -0.9204374 -0.0176101 0.3904932 204 204 204 255 0.833333 0.333333
0.114418 0.327059 0.039243 -0.474601 -0.2767628 0.8355574 204 204 204 255 0.833333 0
0.074933 0.266511 0.095906 0.0317866 -0.3466447 -0.9374577 204 204 204 255 0.833333 0
0.057533 0.118475 0.097301 0.02055687 0.4461284 -0.8947329 204 204 204 255 0.833333 0.666667
0.054529 0.195968 0.118509 -0.1803856 -0.0255218 -0.9832648 204 204 204 255 0.833333 0.333333
0.09524 0.327059 0.074582 0.4430155 -0.2734469 -0.8537939 204 204 204 255 0.833333 0
0.06158 0.234164 0.109009 -0.1114304 -0.254469 -0.9606398 204 204 204 255 0.833333 0.166667
0.123315 0.234406 -0.010833 -0.8607524 -0.2688866 0.4322098 204 204 204 255 0.833333 0.166667
0.056256 0.155658 0.110019 -0.08157956 0.2502848 -0.9647292 204 204 204 255 0.833333 0.5
0.120569 0.155586 -0.014372 -0.8365011 0.2688904 0.4774556 204 204 204 255 0.833333 0.5
0.113338 0.376369 0.057023 0.1327385 -0.9416158 0.3094192 204 204 204 255 0.833333 0
0.079782 0.066101 0.051939 -0.1111325 0.9282198 -0.3550459 204 204 204 255 0.833333 1
0.066118 0.086234 0.074163 0.05453423 0.6925373 -0.7193178 204 204 204 255 0.833333 1
0.098107 0.08597 0.014714 -0.5700161 0.727787 0.3813237 204 204 204 255 0.833333 1
0.114494 0.371897 0.049121 -0.3207975 -0.5730522 0.7541221 204 204 204 255 0.833333 0
0.103563 0.371897 0.069262 0.4879922 -0.5963827 -0.6373314 204 204 204 255 0.833333 0
0.109552 0.376369 0.064 0.3414208 -0.9350247 -0.09571167 204 204 204 255 0.833333 0
0.087127 0.066101 0.038359 -0.3756691 0.9124582 0.1621506 204 204 204 255 0.833333 1
0.135923 0.296301 0.043278 -0.6968332 -0.2591258 0.668788 204 204 204 255 1 0
0.104942 0.297614 0.011773 -0.2324807 -0.5765408 0.7832966 204 204 204 255 0.666667 0
0.110393 0.296298 0.090421 0.1820859 -0.258718 -0.9486358 204 204 204 255 1 0
0.145689 0.296279 0.094876 -0.07840895 -0.2593471 -0.9625961 204 204 204 255 1 0
0.070109 0.297424 0.082053 0.5343039 -0.5581923 -0.6347762 204 204 204 255 0.666667 0
0.069067 0.30805 0.051973 0.8501796 -0.5155347 0.1068583 204 204 204 255 0.666667 0
0.160858 0.298598 0.081909 -0.9152665 -0.3863256 -0.1141928 204 204 204 255 1 0
0.081191 0.307764 0.029633 0.6044742 -0.5059111 0.6153575 204 204 204 255 0.666667 0
0.158927 0.296279 0.070482 -0.8531329 -0.2500519 0.4578628 204 204 204 255 1 0
0.156314 0.298598 0.09028 -0.5922942 -0.3884469 -0.7059013 204 204 204 255 1 0
0.085086 0.296785 0.085244 0.219424 -0.3912162 -0.8937578 204 204 204 255 0.833333 0
0.116921 0.296869 0.02389 -0.631188 -0.3948097 0.6676279 204 204 204 255 0.833333 0
-0.134449 0.377361 -0.067577 0.9525865 -0.2397786 -0.1873103 180 154 154 255 0 0
-0.125362 0.378953 -0.053617 0.7805023 -0.371507 -0.5027909 204 204 204 255 0 0
-0.137092 0.361113 -0.065618 0.9064709 -0.2379273 -0.3488568 215 190 145 255 0 0
-0.125317 0.361761 -0.048463 0.7928905 -0.03126024 -0.6085618 204 204 204 255 0 0
-0.113293 0.378953 -0.075856 0.007311917 -0.3737652 0.9274945 204 204 204 255 0 0
-0.108946 0.361761 -0.078627 -0.09689009 -0.08276276 0.9918481 204 204 204 255 0 0
-0.129957 0.377361 -0.075854 0.3622014 -0.2093189 0.9082928 168 129 129 255 0 0
-0.129755 0.361114 -0.079138 0.2729067 -0.1413711 0.9515966 211 194 164 255 0 0
3 353 339 9 
3 353 9 4 
3 288 287 4 
3 288 4 9 
3 349 340 8 
3 349 8 124 
3 123 6 7 
3 123 7 122 
3 347 338 3 
3 347 3 109 
3 110 16 160 
3 110 160 161 
3 6 192 181 
3 6 181 7 
3 108 5 158 
3 108 158 150 
3 295 288 9 
3 295 9 124 
3 187 10 205 
3 187 205 1 
3 107 207 198 
3 107 198 0 
3 121 125 11 
3 121 11 2 
3 366 14 12 
3 366 12 358 
3 369 341 13 
3 369 13 359 
3 14 204 15 
3 14 15 12 
3 341 354 189 
3 341 189 13 
3 122 7 18 
3 122 18 126 
3 185 108 150 
3 185 150 151 
3 7 181 17 
3 7 17 18 
3 123 127 22 
3 123 22 6 
3 6 22 20 
3 6 20 192 
3 108 111 21 
3 108 21 5 
3 127 209 26 
3 127 26 22 
3 22 26 24 
3 22 24 20 
3 111 208 25 
3 111 25 21 
3 33 28 374 
3 33 374 375 
3 34 27 28 
3 34 28 33 
3 185 32 31 
3 185 31 19 
3 19 31 30 
3 19 30 23 
3 32 34 33 
3 32 33 31 
3 31 33 375 
3 31 375 30 
3 352 227 45 
3 352 45 343 
3 290 45 227 
3 290 227 305 
3 348 131 44 
3 348 44 344 
3 130 129 43 
3 130 43 42 
3 346 114 40 
3 346 40 342 
3 132 129 147 
3 132 147 149 
3 42 43 233 
3 42 233 36 
3 130 41 143 
3 130 143 142 
3 294 131 45 
3 294 45 290 
3 240 37 232 
3 240 232 47 
3 112 35 46 
3 112 46 115 
3 128 38 242 
3 128 242 246 
3 361 360 48 
3 361 48 50 
3 368 362 49 
3 368 49 345 
3 50 48 229 
3 50 229 231 
3 345 49 51 
3 345 51 355 
3 129 132 54 
3 129 54 43 
3 129 130 142 
3 129 142 147 
3 43 54 53 
3 43 53 233 
3 130 42 57 
3 130 57 133 
3 42 36 236 
3 42 236 57 
3 113 41 56 
3 113 56 117 
3 133 57 216 
3 133 216 248 
3 57 236 58 
3 57 58 216 
3 117 56 219 
3 117 219 243 
3 65 373 371 
3 65 371 60 
3 235 65 60 
3 235 60 59 
3 237 55 62 
3 237 62 63 
3 55 234 61 
3 55 61 62 
3 63 62 65 
3 63 65 235 
3 62 61 373 
3 62 373 65 
3 118 78 77 
3 118 77 119 
3 206 186 241 
3 206 241 100 
3 197 90 89 
3 197 89 222 
3 201 188 93 
3 201 93 91 
3 104 101 102 
3 104 102 103 
3 193 182 82 
3 193 82 217 
3 96 206 100 
3 96 100 97 
3 79 184 238 
3 79 238 221 
3 95 87 239 
3 95 239 230 
3 120 99 98 
3 120 98 244 
3 134 96 97 
3 134 97 245 
3 203 95 230 
3 203 230 228 
3 190 180 76 
3 190 76 94 
3 202 81 80 
3 202 80 225 
3 350 203 228 
3 350 228 356 
3 357 92 226 
3 357 226 351 
3 191 202 225 
3 191 225 215 
3 365 201 91 
3 365 91 363 
3 306 200 88 
3 306 88 291 
3 364 85 86 
3 364 86 367 
3 184 197 222 
3 184 222 238 
3 377 376 370 
3 377 370 372 
3 182 71 70 
3 182 70 82 
3 81 79 221 
3 81 221 80 
3 210 194 218 
3 210 218 247 
3 180 193 217 
3 180 217 76 
3 71 68 69 
3 71 69 70 
3 85 120 244 
3 85 244 86 
3 194 118 119 
3 194 119 218 
3 55 117 243 
3 55 243 234 
3 237 113 117 
3 237 117 55 
3 292 114 137 
3 292 137 297 
3 38 112 115 
3 38 115 242 
3 289 40 114 
3 289 114 292 
3 52 116 146 
3 52 146 145 
3 344 44 114 
3 344 114 346 
3 19 23 208 
3 19 208 111 
3 185 19 111 
3 185 111 108 
3 122 126 164 
3 122 164 162 
3 2 11 207 
3 2 207 107 
3 286 293 109 
3 286 109 3 
3 196 185 151 
3 196 151 154 
3 340 347 109 
3 340 109 8 
3 68 210 247 
3 68 247 69 
3 99 134 245 
3 99 245 98 
3 56 133 248 
3 56 248 219 
3 41 130 133 
3 41 133 56 
3 41 113 135 
3 41 135 143 
3 37 128 246 
3 37 246 232 
3 294 132 149 
3 294 149 298 
3 113 237 136 
3 113 136 135 
3 343 45 131 
3 343 131 348 
3 21 25 209 
3 21 209 127 
3 5 21 127 
3 5 127 123 
3 16 196 154 
3 16 154 160 
3 1 205 125 
3 1 125 121 
3 123 122 162 
3 123 162 157 
3 293 110 161 
3 293 161 300 
3 339 349 124 
3 339 124 9 
3 312 190 94 
3 312 94 313 
3 135 140 141 
3 135 141 143 
3 297 137 138 
3 297 138 296 
3 140 146 144 
3 140 144 141 
3 139 145 146 
3 139 146 140 
3 136 139 140 
3 136 140 135 
3 141 144 149 
3 141 149 147 
3 296 138 148 
3 296 148 298 
3 143 141 147 
3 143 147 142 
3 114 44 138 
3 114 138 137 
3 44 131 148 
3 44 148 138 
3 39 52 145 
3 39 145 139 
3 237 39 139 
3 237 139 136 
3 150 158 156 
3 150 156 155 
3 300 299 153 
3 300 153 152 
3 155 156 159 
3 155 159 161 
3 154 155 161 
3 154 161 160 
3 151 150 155 
3 151 155 154 
3 156 162 164 
3 156 164 159 
3 299 301 163 
3 299 163 153 
3 158 157 162 
3 158 162 156 
3 295 124 163 
3 295 163 301 
3 124 8 153 
3 124 153 163 
3 5 123 157 
3 5 157 158 
3 8 109 152 
3 8 152 153 
3 374 28 191 
3 374 191 376 
3 11 125 134 
3 11 134 99 
3 26 209 210 
3 26 210 68 
3 25 208 118 
3 25 118 194 
3 198 207 120 
3 198 120 85 
3 24 26 68 
3 24 68 71 
3 181 192 193 
3 181 193 180 
3 209 25 194 
3 209 194 210 
3 34 32 79 
3 34 79 81 
3 20 24 71 
3 20 71 182 
3 185 196 197 
3 185 197 184 
3 366 198 85 
3 366 85 364 
3 286 3 200 
3 286 200 306 
3 359 13 201 
3 359 201 365 
3 28 27 202 
3 28 202 191 
3 353 4 92 
3 353 92 357 
3 354 15 203 
3 354 203 350 
3 27 34 81 
3 27 81 202 
3 17 181 180 
3 17 180 190 
3 15 204 95 
3 15 95 203 
3 125 205 96 
3 125 96 134 
3 207 11 99 
3 207 99 120 
3 204 14 87 
3 204 87 95 
3 32 185 184 
3 32 184 79 
3 205 10 206 
3 205 206 96 
3 192 20 182 
3 192 182 193 
3 13 189 188 
3 13 188 201 
3 196 16 90 
3 196 90 197 
3 10 187 186 
3 10 186 206 
3 208 23 78 
3 208 78 118 
3 30 195 78 
3 30 78 23 
3 30 375 377 
3 30 377 195 
3 371 370 215 
3 371 215 60 
3 69 247 248 
3 69 248 216 
3 98 245 246 
3 98 246 242 
3 86 244 115 
3 86 115 46 
3 218 119 243 
3 218 243 219 
3 119 77 234 
3 119 234 243 
3 100 241 240 
3 100 240 47 
3 222 89 52 
3 222 52 39 
3 61 220 372 
3 61 372 373 
3 91 93 51 
3 91 51 49 
3 217 82 236 
3 217 236 36 
3 97 100 47 
3 97 47 232 
3 221 238 237 
3 221 237 63 
3 230 239 50 
3 230 50 231 
3 244 98 242 
3 244 242 115 
3 245 97 232 
3 245 232 246 
3 228 230 231 
3 228 231 229 
3 94 76 233 
3 94 233 53 
3 225 80 235 
3 225 235 59 
3 356 228 229 
3 356 229 355 
3 351 226 227 
3 351 227 352 
3 215 225 59 
3 215 59 60 
3 363 91 49 
3 363 49 362 
3 291 88 40 
3 291 40 289 
3 367 86 46 
3 367 46 361 
3 238 222 39 
3 238 39 237 
3 82 70 58 
3 82 58 236 
3 80 221 63 
3 80 63 235 
3 234 77 220 
3 234 220 61 
3 247 218 219 
3 247 219 248 
3 76 217 36 
3 76 36 233 
3 70 69 216 
3 70 216 58 
3 89 291 289 
3 89 289 52 
3 16 286 306 
3 16 306 90 
3 126 295 301 
3 126 301 164 
3 159 164 301 
3 159 301 299 
3 161 159 299 
3 161 299 300 
3 144 296 298 
3 144 298 149 
3 146 297 296 
3 146 296 144 
3 109 293 300 
3 109 300 152 
3 131 294 298 
3 131 298 148 
3 16 110 293 
3 16 293 286 
3 52 289 292 
3 52 292 116 
3 116 292 297 
3 116 297 146 
3 90 306 291 
3 90 291 89 
3 132 294 290 
3 132 290 54 
3 54 290 305 
3 54 305 53 
3 126 18 288 
3 126 288 295 
3 18 17 287 
3 18 287 288 
3 92 312 313 
3 92 313 226 
3 241 351 352 
3 241 352 240 
3 93 356 355 
3 93 355 51 
3 189 354 350 
3 189 350 188 
3 187 353 357 
3 187 357 186 
3 1 121 349 
3 1 349 339 
3 37 343 348 
3 37 348 128 
3 2 107 347 
3 2 347 340 
3 38 344 346 
3 38 346 112 
3 186 357 351 
3 186 351 241 
3 188 350 356 
3 188 356 93 
3 48 345 355 
3 48 355 229 
3 360 368 345 
3 360 345 48 
3 112 346 342 
3 112 342 35 
3 128 348 344 
3 128 344 38 
3 240 352 343 
3 240 343 37 
3 12 15 354 
3 12 354 341 
3 358 12 341 
3 358 341 369 
3 107 0 338 
3 107 338 347 
3 121 2 340 
3 121 340 349 
3 187 1 339 
3 187 339 353 
3 0 358 369 
3 0 369 338 
3 35 342 368 
3 35 368 360 
3 239 367 361 
3 239 361 50 
3 88 363 362 
3 88 362 40 
3 3 359 365 
3 3 365 200 
3 14 366 364 
3 14 364 87 
3 87 364 367 
3 87 367 239 
3 200 365 363 
3 200 363 88 
3 342 40 362 
3 342 362 368 
3 46 35 360 
3 46 360 361 
3 338 369 359 
3 338 359 3 
3 198 366 358 
3 198 358 0 
3 224 223 370 
3 224 370 371 
3 64 224 371 
3 64 371 373 
3 223 83 372 
3 223 372 370 
3 83 64 373 
3 83 373 372 
3 29 183 375 
3 29 375 374 
3 84 199 376 
3 84 376 377 
3 183 84 377 
3 183 377 375 
3 199 29 374 
3 199 374 376 
3 195 377 101 
3 195 101 104 
3 220 103 102 
3 220 102 372 
3 101 377 372 
3 101 372 102 
3 195 104 103 
3 195 103 220 
3 311 176 167 
3 311 167 308 
3 304 178 249 
3 304 249 307 
3 315 314 275 
3 315 275 277 
3 251 166 308 
3 251 308 167 
3 303 174 169 
3 303 169 302 
3 327 326 262 
3 327 262 265 
3 310 173 170 
3 310 170 309 
3 170 211 171 
3 170 171 309 
3 312 92 173 
3 312 173 310 
3 190 175 213 
3 287 17 174 
3 287 174 303 
3 53 179 252 
3 305 227 178 
3 305 178 304 
3 313 94 176 
3 313 176 311 
3 92 4 172 
3 92 172 173 
3 17 214 174 
3 17 190 213 
3 17 213 214 
3 168 302 169 
3 168 169 212 
3 168 212 211 
3 168 211 170 
3 335 334 254 
3 335 254 257 
3 331 330 261 
3 331 261 259 
3 172 168 279 
3 172 279 278 
3 227 226 177 
3 227 177 178 
3 94 253 176 
3 94 53 252 
3 94 252 253 
3 165 307 249 
3 165 249 250 
3 250 249 166 
3 250 166 251 
3 323 322 266 
3 323 266 269 
3 319 318 271 
3 319 271 270 
3 166 249 285 
3 166 285 282 
3 256 257 254 
3 256 254 255 
3 334 336 255 
3 334 255 254 
3 337 335 257 
3 337 257 256 
3 336 337 256 
3 336 256 255 
3 261 260 258 
3 261 258 259 
3 330 332 260 
3 330 260 261 
3 333 331 259 
3 333 259 258 
3 332 333 258 
3 332 258 260 
3 265 262 263 
3 265 263 264 
3 326 328 263 
3 326 263 262 
3 328 329 264 
3 328 264 263 
3 329 327 265 
3 329 265 264 
3 268 269 266 
3 268 266 267 
3 324 323 269 
3 324 269 268 
3 325 324 268 
3 325 268 267 
3 322 325 267 
3 322 267 266 
3 273 272 270 
3 273 270 271 
3 318 320 273 
3 318 273 271 
3 321 319 270 
3 321 270 272 
3 320 321 272 
3 320 272 273 
3 277 275 274 
3 277 274 276 
3 317 316 276 
3 317 276 274 
3 316 315 277 
3 316 277 276 
3 314 317 274 
3 314 274 275 
3 281 278 279 
3 281 279 280 
3 284 283 282 
3 284 282 285 
3 177 166 282 
3 177 282 283 
3 168 170 280 
3 168 280 279 
3 170 173 281 
3 170 281 280 
3 178 177 283 
3 178 283 284 
3 173 172 278 
3 173 278 281 
3 249 178 284 
3 249 284 285 
3 53 305 304 
3 53 304 179 
3 4 287 303 
3 4 303 172 
3 172 303 302 
3 172 302 168 
3 179 304 307 
3 179 307 165 
3 226 313 311 
3 226 311 177 
3 190 312 310 
3 190 310 175 
3 175 310 309 
3 175 309 171 
3 177 311 308 
3 177 308 166 
3 179 165 317 
3 179 317 314 
3 250 252 315 
3 250 315 316 
3 165 250 316 
3 165 316 317 
3 252 179 314 
3 252 314 315 
3 253 252 321 
3 253 321 320 
3 252 250 319 
3 252 319 321 
3 251 253 320 
3 251 320 318 
3 250 251 318 
3 250 318 319 
3 251 167 325 
3 251 325 322 
3 167 176 324 
3 167 324 325 
3 176 253 323 
3 176 323 324 
3 253 251 322 
3 253 322 323 
3 211 213 327 
3 211 327 329 
3 171 211 329 
3 171 329 328 
3 175 171 328 
3 175 328 326 
3 213 175 326 
3 213 326 327 
3 213 211 333 
3 213 333 332 
3 211 212 331 
3 211 331 333 
3 214 213 332 
3 214 332 330 
3 212 214 330 
3 212 330 331 
3 169 174 337 
3 169 337 336 
3 174 214 335 
3 174 335 337 
3 212 169 336 
3 212 336 334 
3 214 212 334 
3 214 334 335 
3 78 195 72 
3 78 72 75 
3 77 74 73 
3 77 73 220 
3 376 106 105 
3 376 105 370 
3 106 67 66 
3 106 66 105 
3 72 195 220 
3 72 220 73 
3 78 75 74 
3 78 74 77 
3 75 72 73 
3 75 73 74 
3 67 191 215 
3 67 215 66 
3 105 66 215 
3 105 215 370 
3 106 376 191 
3 106 191 67 
3 183 29 199 
3 183 199 84 
3 64 83 223 
3 64 223 224 
